<svg width="40" height="40" viewBox="0 0 40 40" fill="none" xmlns="http://www.w3.org/2000/svg">
<path d="M40 31.7908C40 36.3161 36.3161 40 31.7908 40H8.20921C3.66117 40 0 36.3161 0 31.7908V8.20921C0 3.68391 3.68391 0 8.20921 0H31.7908C36.3388 0 40 3.68391 40 8.20921V31.7908Z" fill="url(#paint0_radial)"/>
<path d="M25.7876 4.91187H14.2128C9.07356 4.91187 4.91211 9.07332 4.91211 14.2126V25.7874C4.91211 30.9266 9.07356 35.0881 14.2128 35.0881H25.7876C30.9269 35.0881 35.0883 30.9266 35.0883 25.7874V14.2126C35.0883 9.07332 30.9269 4.91187 25.7876 4.91187ZM32.2003 24.6731C32.2003 28.8118 28.8348 32.1774 24.6961 32.1774H15.3271C11.1884 32.1774 7.82285 28.8118 7.82285 24.6731V15.3269C7.82285 11.1882 11.1884 7.82261 15.3271 7.82261H24.6733C28.8121 7.82261 32.1776 11.1882 32.1776 15.3269V24.6731H32.2003Z" fill="white"/>
<path d="M20.3985 12.0978C16.0097 12.0978 12.4395 15.6452 12.4395 20.0341C12.4395 24.423 15.9869 27.9704 20.3985 27.9704C24.7874 27.9704 28.3348 24.4002 28.3348 20.0341C28.3576 15.668 24.7874 12.0978 20.3985 12.0978ZM20.3985 24.8323C17.7607 24.8323 15.6231 22.6947 15.6231 20.0568C15.6231 17.419 17.7607 15.2814 20.3985 15.2814C23.0364 15.2814 25.174 17.419 25.174 20.0568C25.1967 22.6947 23.0364 24.8323 20.3985 24.8323Z" fill="white"/>
<path d="M29.8358 11.9841C29.8358 13.0984 28.9262 14.008 27.812 14.008C26.6977 14.008 25.7881 13.0984 25.7881 11.9841C25.7881 10.8698 26.6977 9.96021 27.812 9.96021C28.9262 9.96021 29.8358 10.8698 29.8358 11.9841Z" fill="white"/>
<defs>
<radialGradient id="paint0_radial" cx="0" cy="0" r="1" gradientUnits="userSpaceOnUse" gradientTransform="translate(11.7185 43.104) scale(53.0124)">
<stop offset="0.0969388" stop-color="#FFD879"/>
<stop offset="0.1539" stop-color="#FCCB76"/>
<stop offset="0.2583" stop-color="#F5AA6C"/>
<stop offset="0.3976" stop-color="#E9755E"/>
<stop offset="0.449" stop-color="#E45F58"/>
<stop offset="0.6786" stop-color="#D22A9C"/>
<stop offset="1" stop-color="#6968DF"/>
</radialGradient>
</defs>
</svg>
