<svg width="40" height="40" viewBox="0 0 40 40" fill="none" xmlns="http://www.w3.org/2000/svg">
<path d="M40 31.7908C40 36.3161 36.3161 40 31.7908 40H8.20921C3.66117 40 0 36.3161 0 31.7908V8.20921C0 3.68391 3.68391 0 8.20921 0H31.7681C36.3161 0 39.9773 3.68391 39.9773 8.20921V31.7908H40Z" fill="#1DA1F2"/>
<path d="M15.2354 31.5862C25.7414 31.5862 31.4947 22.8767 31.4947 15.3269C31.4947 15.0768 31.4947 14.8267 31.4719 14.5992C32.5862 13.8033 33.564 12.78 34.3145 11.643C33.2912 12.0978 32.1769 12.3935 31.0399 12.5526C32.2224 11.8477 33.132 10.7334 33.564 9.39175C32.4498 10.0512 31.2445 10.5288 29.9256 10.7789C28.8796 9.66463 27.4014 8.98242 25.7642 8.98242C22.6033 8.98242 20.0564 11.5521 20.0564 14.6902C20.0564 15.145 20.1018 15.5771 20.1928 15.9864C15.4401 15.7363 11.2332 13.4622 8.41339 10.0057C7.9131 10.8471 7.64022 11.8249 7.64022 12.871C7.64022 14.8494 8.64079 16.6004 10.1871 17.6237C9.25477 17.601 8.36791 17.3281 7.59474 16.9187C7.59474 16.9415 7.59474 16.9642 7.59474 16.987C7.59474 19.7613 9.57314 22.058 12.1883 22.5811C11.7107 22.7175 11.2104 22.7857 10.6874 22.7857C10.3236 22.7857 9.95972 22.7402 9.61862 22.672C10.3463 24.946 12.4611 26.6061 14.9626 26.6516C12.9842 28.1979 10.5282 29.1075 7.84488 29.1075C7.39008 29.1075 6.93527 29.0848 6.48047 29.0165C9.00463 30.6538 12.0063 31.5862 15.2354 31.5862Z" fill="white"/>
</svg>
