<svg width="280" height="47" viewBox="0 0 280 47" fill="none" xmlns="http://www.w3.org/2000/svg">
<g clip-path="url(#clip0)">
<path d="M29.9445 6.6843H15.7912L14.4473 11.2512H27.4666L25.7447 17.2712H12.7254L9.9955 26.6542H0L7.60162 0.415161H31.7084L29.9445 6.6843Z" fill="white"/>
<path d="M45.6517 26.6542L45.2317 22.3364H35.3202L32.3384 26.6542H21.5869L40.654 0.415161H52.2454L55.6892 26.6542H45.6517ZM44.6858 7.22402L38.8061 16.5655H45.2317L44.6858 7.22402Z" fill="white"/>
<path d="M78.914 9.42446C79.418 7.18252 78.914 5.937 75.8482 5.937C72.6563 5.937 70.7244 7.141 70.9764 8.92625C71.3124 11.7079 89.0355 9.7566 86.2636 19.2226C85.2557 22.7931 81.2659 27.0694 70.9764 27.0694C60.6449 27.0694 56.6131 23.831 58.0411 17.1882H67.9106C67.1546 19.6793 68.2466 21.0909 71.2284 21.0909C74.9242 21.0909 76.1002 19.8038 76.5621 18.3922C77.6121 14.9463 58.839 17.2713 61.1489 8.05439C62.1989 3.69505 66.2307 0 76.5621 0C86.4736 0 89.7075 3.86112 88.6155 9.42446H78.914Z" fill="white"/>
<path d="M115.746 6.72582H108.061L102.265 26.6542H92.3534L98.1491 6.76733H90.4215L92.2274 0.415161H117.51L115.746 6.72582Z" fill="white"/>
<path d="M177.189 26.6542H157.072L164.632 0.415161H174.711L168.832 20.5096H178.953L177.189 26.6542Z" fill="white"/>
<path d="M201.884 26.6542L201.464 22.3364H191.552L188.529 26.6542H177.777L196.886 0.415161H208.478L211.921 26.6542H201.884ZM200.918 7.22402L194.996 16.5655H201.422L200.918 7.22402Z" fill="white"/>
<path d="M244.176 26.6542H233.55L227.503 12.4137L223.387 26.6542H213.349L220.867 0.415161H231.954L237.498 15.0293L241.74 0.415161H251.819L244.176 26.6542Z" fill="white"/>
<path d="M278.236 6.6843H263.789L262.739 10.4624H275.716L274.036 16.1503H261.059L259.883 20.3851H274.246L272.398 26.6542H247.956L255.599 0.415161H280.042L278.236 6.6843Z" fill="white"/>
<path d="M106.297 40.4795L109.279 46.209H104.869L103.147 41.2684L101.929 46.209H98.1911L101.005 34.9162H104.701L103.693 39.0264L107.137 34.9162H112.092L106.297 40.4795Z" fill="#EE2F34"/>
<path d="M118.77 46.209L118.602 44.3407H114.948L113.856 46.209H109.867L116.922 34.9162H121.206L122.466 46.209H118.77ZM118.434 37.8639L116.25 41.8911H118.602L118.434 37.8639Z" fill="#EE2F34"/>
<path d="M132.755 42.1402L135.149 46.209H130.823L129.228 41.9742L128.178 46.209H124.44L127.254 34.9162H131.789C136.703 34.9162 136.535 37.5318 136.157 39.0679C135.821 40.4795 134.897 41.7251 132.755 42.1402ZM131.243 37.6148H130.319L129.689 40.1059H130.403C131.705 40.1059 132.251 39.6492 132.503 38.7773C132.713 37.9885 132.335 37.6148 131.243 37.6148Z" fill="#EE2F34"/>
<path d="M147.245 37.6564H144.389L142.247 46.209H138.593L140.735 37.6564H137.879L138.551 34.9162H147.917L147.245 37.6564Z" fill="#EE2F34"/>
<path d="M151.234 46.209H147.497L150.311 34.9162H154.006L151.234 46.209Z" fill="#EE2F34"/>
<path d="M165.514 46.209H161.566L159.34 40.1059L157.828 46.209H154.132L156.904 34.9162H161.02L163.078 41.1853L164.632 34.9162H168.37L165.514 46.209Z" fill="#EE2F34"/>
<path d="M177.525 38.6943C177.651 37.9885 177.315 37.4072 176.097 37.4072C174.249 37.4072 173.535 38.8188 173.031 40.7702C172.653 42.3478 172.443 43.8009 174.207 43.8009C175.089 43.8009 176.097 43.3442 176.517 42.0572H174.417L175.047 39.6077H180.927L179.289 46.2505H177.063L176.853 45.0465C176.013 46.0014 174.753 46.458 173.661 46.458C168.874 46.458 168.748 43.1366 169.42 40.4795C170.133 37.6563 171.603 34.8332 176.307 34.8332C180.087 34.8332 181.599 36.5354 181.137 38.7773H177.525V38.6943Z" fill="#EE2F34"/>
<path d="M136.199 0.913391H146.699L156.904 13.7838L146.531 27.0694H136.199L146.531 13.9914L136.199 0.913391Z" fill="#EE2F34"/>
<path d="M120.492 0.913391H130.991L141.239 13.7838L130.865 27.0694H120.492L130.865 13.9914L120.492 0.913391Z" fill="#EE2F34"/>
</g>
<defs>
<clipPath id="clip0">
<rect width="280" height="46.375" fill="white"/>
</clipPath>
</defs>
</svg>
