<?xml version="1.0" encoding="UTF-8"?>
<svg id="Layer_1" xmlns="http://www.w3.org/2000/svg" baseProfile="tiny" version="1.2" viewBox="0 0 256.6 47">
  <!-- Generator: Adobe Illustrator 29.2.1, SVG Export Plug-In . SVG Version: 2.1.0 Build 116)  -->
  <path d="M30.9,6.7h-14.2l-1.3,4.6h13l-1.7,6h-13l-2.7,9.4H1L8.6.4h24.1l-1.8,6.3Z" fill="#fff"/>
  <path d="M46.7,26.7l-.4-4.3h-9.9l-3,4.3h-10.8L41.7.4h11.6l3.4,26.2h-10ZM45.7,7.2l-5.9,9.3h6.4l-.5-9.3Z" fill="#fff"/>
  <path d="M79.9,9.4c.5-2.2,0-3.5-3.1-3.5s-5.1,1.2-4.9,3c.3,2.8,18.1.8,15.3,10.3-1,3.6-5,7.8-15.3,7.8s-14.4-3.2-12.9-9.9h9.9c-.8,2.5.3,3.9,3.3,3.9s4.9-1.3,5.3-2.7c1-3.4-17.7-1.1-15.4-10.3,1-4.4,5.1-8.1,15.4-8.1s13.1,3.9,12.1,9.4h-9.7Z" fill="#fff"/>
  <path d="M116.7,6.7h-7.7l-5.8,19.9h-9.9l5.8-19.9h-7.7l1.8-6.4h25.3l-1.8,6.3Z" fill="#fff"/>
  <path d="M151.5,26.7h-20.1L138.9.4h10.1l-5.9,20.1h10.1l-1.8,6.1Z" fill="#fff"/>
  <path d="M176.2,26.7l-.4-4.3h-9.9l-3,4.3h-10.8L171.2.4h11.6l3.4,26.2h-10ZM175.2,7.2l-5.9,9.3h6.4l-.5-9.3Z" fill="#fff"/>
  <path d="M218.5,26.7h-10.6l-6-14.2-4.1,14.2h-10L195.2.4h11.1l5.5,14.6,4.2-14.6h10.1l-7.6,26.2Z" fill="#fff"/>
  <path d="M252.5,6.7h-14.4l-1,3.8h13l-1.7,5.7h-13l-1.2,4.2h14.4l-1.8,6.3h-24.4L229.9.4h24.4l-1.8,6.3Z" fill="#fff"/>
  <path d="M88.7,40.5l3,5.7h-4.4l-1.7-4.9-1.2,4.9h-3.7l2.8-11.3h3.7l-1,4.1,3.4-4.1h5l-5.8,5.6Z" fill="#ee2f34"/>
  <path d="M101.1,46.2l-.2-1.9h-3.7l-1.1,1.9h-4l7.1-11.3h4.3l1.3,11.3h-3.7ZM100.8,37.9l-2.2,4h2.4l-.2-4Z" fill="#ee2f34"/>
  <path d="M115.1,42.1l2.4,4.1h-4.3l-1.6-4.2-1.1,4.2h-3.7l2.8-11.3h4.5c4.9,0,4.7,2.6,4.4,4.2-.3,1.4-1.3,2.7-3.4,3.1ZM113.6,37.6h-.9l-.6,2.5h.7c1.3,0,1.8-.5,2.1-1.3.2-.8-.2-1.2-1.3-1.2Z" fill="#ee2f34"/>
  <path d="M129.6,37.7h-2.9l-2.1,8.6h-3.7l2.1-8.6h-2.9l.7-2.7h9.4l-.7,2.7Z" fill="#ee2f34"/>
  <path d="M133.6,46.2h-3.7l2.8-11.3h3.7l-2.8,11.3Z" fill="#ee2f34"/>
  <path d="M147.9,46.2h-3.9l-2.2-6.1-1.5,6.1h-3.7l2.8-11.3h4.1l2.1,6.3,1.6-6.3h3.7l-2.9,11.3Z" fill="#ee2f34"/>
  <path d="M159.9,38.7c.1-.7-.2-1.3-1.4-1.3-1.8,0-2.6,1.4-3.1,3.4-.4,1.6-.6,3,1.2,3s1.9-.5,2.3-1.7h-2.1l.6-2.4h5.9l-1.6,6.6h-2.2l-.2-1.2c-.8,1-2.1,1.4-3.2,1.4-4.8,0-4.9-3.3-4.2-6,.7-2.8,2.2-5.6,6.9-5.6s5.3,1.7,4.8,3.9h-3.6Z" fill="#ee2f34"/>
</svg>