<svg width="558" height="778" viewBox="0 0 558 778" fill="none" xmlns="http://www.w3.org/2000/svg">
<g>
<path d="M412.721 0L404.258 65.6203L502.656 130.952L558 92.521V0H412.721Z" fill="#048BCC"/>
<path d="M38.3378 248.944C36.8043 203.595 29.7825 177.455 56.0135 134.792C73.228 106.796 97.5219 77.1393 157.098 68.0187C235.733 55.9692 338.501 70.9935 388.473 103.279C438.444 135.565 421.518 228.57 421.91 242.026C422.302 255.482 383.861 186.403 383.861 186.403C383.861 186.403 384.622 117.496 246.26 108.272C76.2027 96.9372 87.1448 192.445 87.1448 192.445L38.3378 248.944Z" fill="#575756"/>
<path d="M429.623 272.005C415.407 218.192 396.578 190.139 366.98 158.234C337.382 126.329 303.564 123.642 266.288 118.649C266.288 118.649 212.096 110.958 182.879 115.571C153.661 120.183 99.8619 137.871 60.279 202.05C20.6961 266.229 22.6101 315.049 17.6176 385.005C12.625 454.96 30.6812 508.001 111.012 516.453C191.342 524.905 215.163 442.277 220.409 405.379C225.655 368.481 224.779 306.978 225.16 290.454C225.54 273.931 237.07 266.24 247.839 267.774C258.609 269.307 271.661 282.002 273.586 296.22C275.512 310.437 273.586 370.787 275.512 433.756C277.437 496.724 252.059 512.613 205.558 518.759C159.058 524.905 102.618 527.603 56.4971 547.585C10.3767 567.568 -25.3667 657.125 29.9779 716.704C85.3224 776.282 220.225 798.571 315.925 749.37C411.625 700.169 430.834 620.608 434.293 570.266C437.752 519.923 437.752 431.899 437.752 397.308C437.752 362.716 443.909 325.818 429.623 272.005ZM360.892 561.802C359.347 604.085 335.134 669.809 264.039 692.49C192.945 715.17 113.756 700.941 111.45 640.602C112.995 586.017 170.968 597.167 208.695 591.782C246.421 586.397 300.544 581.404 325.91 541.047C351.276 500.691 348.59 460.334 348.59 408.066C348.59 355.798 353.582 297.373 336.679 259.702C319.776 222.032 311.693 208.587 241.36 198.21C171.026 187.832 149.499 234.727 149.891 295.066C150.283 355.406 152.197 382.699 147.585 410.372C142.973 438.045 133.357 446.635 111.45 434.84C89.5425 423.044 89.5425 398.461 93.0015 349.26C96.4605 300.059 112.995 242.026 142.581 214.353C172.167 186.679 203.794 185.526 220.467 186.679C237.139 187.832 258.274 189.758 258.274 189.758C281.334 192.445 306.309 192.064 328.608 225.111C350.907 258.157 363.198 286.223 364.351 335.423C365.504 384.624 362.368 519.531 360.892 561.802Z" fill="#1D1D1B"/>
<path d="M197.257 777.562C183.998 777.558 170.752 776.691 157.605 774.967C103.264 767.934 56.4169 746.914 29.0675 717.488C-3.71261 682.193 -1.15293 641.64 3.20546 620.597C10.2619 586.904 31.4658 557.144 55.9788 546.547C93.0827 530.405 137.485 525.447 176.653 521.03C186.696 519.877 196.173 518.84 205.409 517.571C251.599 511.46 276.262 496.297 274.359 433.744C273.391 402.243 273.391 371.479 273.391 346.666C273.391 322.451 273.391 303.357 272.445 296.323C270.554 282.371 257.813 270.322 247.667 268.869C245.185 268.516 242.656 268.691 240.246 269.382C237.836 270.074 235.599 271.266 233.681 272.882C230.441 275.626 226.532 280.953 226.313 290.431C226.232 293.637 226.209 298.503 226.175 304.637C226.036 329.474 225.783 375.688 221.563 405.494C219.718 418.443 213.434 451.478 194.824 478.529C174.462 508.139 146.225 521.273 110.897 517.548C72.4899 513.512 46.4665 499.376 31.3389 474.343C18.552 453.173 13.6863 423.909 16.4766 384.878C17.0877 376.38 17.6296 368.17 18.0793 360.249C21.5383 303.138 24.3863 258.03 59.311 201.404C99.4589 136.314 153.858 118.949 182.683 114.394C211.728 109.782 265.873 117.381 266.426 117.462L272.929 118.326C307.243 122.823 339.654 127.067 367.799 157.403C397.478 189.401 416.295 217.085 430.719 271.659C441.8 313.608 440.554 345.455 439.447 373.589C439.136 381.788 438.825 389.548 438.825 397.262C438.825 430.804 438.825 519.912 435.366 570.3C433.06 603.739 424.747 634.226 410.634 660.746C390.652 698.324 358.933 728.465 316.363 750.35C281.623 768.268 240.357 777.562 197.257 777.562ZM245.153 266.436C246.106 266.439 247.057 266.504 248.001 266.632C258.955 268.2 272.71 281.114 274.728 296.07C275.697 303.253 275.697 321.437 275.697 346.712C275.697 371.456 275.697 402.254 276.665 433.721C278.614 497.693 252.129 513.766 205.709 519.9C196.485 521.123 186.961 522.207 176.884 523.36C137.866 527.753 93.6477 532.734 56.8551 548.727C33.0108 559.104 12.3373 588.161 5.41924 621.15C1.10697 641.755 -1.34894 681.466 30.7855 716C57.7429 744.965 104.082 765.628 157.963 772.684C214.576 780.075 270.485 771.428 315.395 748.343C387.965 711.031 427.583 651.095 433.14 570.185C436.599 519.877 436.599 430.827 436.599 397.308C436.599 389.548 436.911 381.776 437.234 373.543C438.329 345.593 439.54 313.907 428.575 272.305C414.266 218.181 395.61 190.738 366.197 159.018C338.617 129.292 308.073 125.291 272.71 120.656L266.184 119.791C265.642 119.71 211.82 112.181 183.167 116.712C154.7 121.209 101.027 138.355 61.3634 202.661C26.773 258.791 23.9712 303.645 20.4776 360.433C19.9818 368.366 19.4744 376.576 18.8749 385.085C16.1192 423.62 20.8696 452.447 33.4028 473.19C48.1383 497.566 73.5968 511.345 111.231 515.311C145.649 518.932 173.171 506.087 193.014 477.26C211.347 450.602 217.55 417.994 219.372 405.206C223.581 375.55 223.834 329.439 223.984 304.66C223.984 298.503 224.042 293.637 224.122 290.42C224.365 280.042 228.735 274.208 232.309 271.164C235.903 268.129 240.45 266.456 245.153 266.436V266.436ZM201.005 703.847C174.774 703.847 151.425 698.082 135.225 686.655C119.614 675.69 111.012 659.789 110.24 640.637C111.496 596.037 149.845 594.192 183.675 592.566C192.507 592.139 200.855 591.736 208.465 590.64L215.844 589.614C251.956 584.621 301.409 577.772 324.884 540.436C347.806 503.965 347.633 467.69 347.426 421.776C347.426 417.29 347.426 412.724 347.426 408.066C347.426 398.392 347.598 388.325 347.771 378.582C348.521 335.354 349.293 290.639 335.607 260.175C318.485 222.032 309.791 209.441 241.176 199.351C213.907 195.327 192.518 199.859 177.598 212.819C159.715 228.362 150.779 256.024 151.079 295.055C151.16 309.214 151.344 321.575 151.494 332.495C152.002 367.905 152.301 389.282 148.75 410.556C146.017 426.987 141.509 436.223 134.58 439.625C128.722 442.496 120.986 441.262 110.943 435.854C87.8826 423.424 88.586 396.212 91.8951 349.179C94.9736 305.248 109.917 243.364 141.832 213.511C163.924 192.86 190.42 183.439 220.583 185.526C237.071 186.679 258.194 188.582 258.413 188.605C260.477 188.847 262.529 189.066 264.593 189.274C286.408 191.58 308.973 193.886 329.588 224.465C351.496 256.912 364.363 285.462 365.539 335.4C366.692 384.278 363.66 518.344 362.08 561.848H360.927H362.08C361.181 586.662 352.983 613.355 339.574 635.102C322.443 663.06 295.74 683.844 264.432 693.585C243.938 700.226 222.547 703.687 201.005 703.847V703.847ZM222.843 195.627C229.077 195.65 235.3 196.132 241.464 197.068C311.279 207.365 320.145 220.21 337.671 259.23C351.507 290.166 350.781 335.135 350.031 378.628C349.858 388.349 349.685 398.403 349.685 408.066C349.685 412.678 349.685 417.29 349.685 421.764C349.893 468.059 350.066 504.622 326.787 541.682C302.746 579.928 252.671 586.847 216.098 591.909L208.73 592.935C201.005 594.088 192.588 594.445 183.721 594.872C149.28 596.532 113.675 598.25 112.476 640.648C113.191 659.224 121.262 674.087 136.482 684.776C164.616 704.516 214.46 707.053 263.625 691.383C331.837 669.636 357.999 607.971 359.74 561.768C361.319 518.275 364.352 384.29 363.199 335.446C362.046 286.073 349.282 257.846 327.651 225.756C307.635 196.077 285.613 193.782 264.316 191.568C262.241 191.349 260.177 191.142 258.136 190.9C257.952 190.9 236.852 188.974 220.387 187.832C190.881 185.78 164.973 194.993 143.366 215.194C111.842 244.586 97.1528 305.824 94.0974 349.375C90.5691 399.545 91.1918 422.698 111.946 433.86C121.285 438.887 128.33 440.109 133.461 437.595C139.676 434.551 143.838 425.846 146.386 410.222C149.845 389.144 149.592 367.847 149.096 332.564C148.946 321.644 148.762 309.272 148.681 295.113C148.427 255.367 157.628 227.082 176.042 211.113C187.941 200.793 203.576 195.627 222.843 195.627V195.627Z" fill="#E30613"/>
<path d="M196.842 777.516C194.824 777.516 192.818 777.516 190.812 777.516V775.21C193.886 775.263 196.961 775.263 200.036 775.21V777.516H196.842ZM209.329 777.251L209.225 774.944C212.269 774.818 215.359 774.633 218.449 774.414L218.622 776.72C215.509 776.951 212.396 777.158 209.329 777.251V777.251ZM181.564 777.135C178.497 776.974 175.396 776.778 172.34 776.524L172.525 774.218C175.569 774.46 178.647 774.668 181.691 774.818L181.564 777.135ZM227.789 775.901L227.558 773.595C230.602 773.272 233.669 772.892 236.667 772.442L236.99 774.748C233.957 775.21 230.867 775.579 227.789 775.901V775.901ZM163.116 775.636C160.061 775.29 156.971 774.898 153.95 774.483L154.273 772.177C157.27 772.604 160.337 772.996 163.381 773.33L163.116 775.636ZM246.133 773.33L245.741 771.024C248.773 770.505 251.806 769.871 254.758 769.318L255.23 771.624C252.255 772.269 249.2 772.846 246.145 773.376L246.133 773.33ZM144.783 772.961C141.739 772.431 138.684 771.808 135.698 771.22L136.159 768.914C139.122 769.537 142.166 770.067 145.187 770.644L144.783 772.961ZM264.27 769.56L263.728 767.323C266.691 766.596 269.677 765.812 272.606 765.017L273.229 767.242C270.289 768.084 267.279 768.879 264.281 769.606L264.27 769.56ZM126.658 769.179C123.66 768.464 120.651 767.669 117.688 766.873L118.31 764.648C121.239 765.466 124.237 766.25 127.2 766.954L126.658 769.179ZM282.095 764.567L281.392 762.365C284.321 761.419 287.238 760.416 290.074 759.378L290.858 761.546C288.01 762.595 285.07 763.61 282.107 764.567H282.095ZM108.809 764.256C105.858 763.322 102.906 762.318 100.023 761.292L100.807 759.125C103.655 760.139 106.572 761.131 109.513 762.053L108.809 764.256ZM299.506 758.179L298.618 756.046C301.455 754.893 304.279 753.648 307.035 752.379L308.004 754.478C305.225 755.758 302.377 757.003 299.517 758.179H299.506ZM91.3643 758.006C88.4702 756.853 85.5992 755.631 82.832 754.385L83.7775 752.275C86.5216 753.509 89.358 754.72 92.2175 755.873L91.3643 758.006ZM74.4611 750.407C71.6824 749.001 68.9267 747.536 66.2747 746.049L67.4277 744.043C70.0451 745.519 72.7777 746.96 75.4988 748.344L74.4611 750.407ZM316.386 750.407L315.821 749.404L315.302 748.367C318.012 746.971 320.721 745.518 323.373 744.054L324.526 746.072C321.863 747.525 319.13 748.989 316.386 750.396V750.407ZM332.528 741.414L331.375 739.442C333.992 737.862 336.598 736.213 339.135 734.553L340.403 736.479C337.832 738.139 335.157 739.799 332.517 741.414H332.528ZM58.2959 741.298C55.644 739.626 53.0497 737.897 50.5707 736.144L51.8852 734.265C54.3295 735.994 56.8892 737.724 59.5066 739.35L58.2959 741.298ZM348.002 731.232L346.664 729.353C349.143 727.588 351.622 725.744 354.02 723.887L355.439 725.709C353.006 727.577 350.515 729.445 348.002 731.232ZM43.1569 730.54C40.7125 728.58 38.3488 726.539 36.112 724.475L37.6685 722.78C39.8708 724.81 42.1999 726.804 44.5866 728.742L43.1569 730.54ZM362.633 719.875L361.146 718.122C363.452 716.15 365.758 714.109 368.064 712.057L369.621 713.752C367.338 715.827 364.997 717.891 362.633 719.875V719.875ZM29.4937 717.937L29.0671 717.488C27.0954 715.355 25.1814 713.141 23.3942 710.892L25.2045 709.451C26.957 711.665 28.8249 713.833 30.762 715.92L31.1771 716.358L29.4937 717.937ZM376.262 707.318L374.636 705.669C376.781 703.513 378.902 701.276 380.943 699.027L382.65 700.572C380.586 702.867 378.441 705.139 376.262 707.318ZM198.56 703.859C195.424 703.859 192.299 703.697 189.278 703.478L189.428 701.172C192.414 701.38 195.493 701.495 198.583 701.541L198.56 703.859ZM207.784 703.732L207.703 701.426C210.712 701.31 213.791 701.114 216.858 700.849L217.054 703.155C213.999 703.363 210.885 703.582 207.83 703.697L207.784 703.732ZM17.9174 703.363C16.211 700.768 14.5968 698.082 13.1324 695.361L15.1617 694.265C16.5915 696.929 18.1711 699.558 19.843 702.083L17.9174 703.363ZM180.019 702.544C176.895 702.141 173.805 701.633 170.795 701.034L171.256 698.728C174.162 699.316 177.194 699.811 180.273 700.215L180.019 702.544ZM226.324 702.129L226.024 699.823C229.022 699.431 232.066 698.958 235.087 698.428L235.491 700.734C232.435 701.241 229.357 701.726 226.324 702.118V702.129ZM244.588 698.912L244.092 696.606C247.067 695.949 250.065 695.222 253.016 694.438L253.605 696.664C250.63 697.505 247.597 698.232 244.588 698.901V698.912ZM161.79 698.912C158.735 698.047 155.76 697.067 152.947 695.983L153.765 693.839C156.521 694.888 159.427 695.845 162.424 696.698L161.79 698.912ZM262.517 694.138L261.837 691.936L263.624 691.371C265.93 690.633 268.236 689.838 270.542 688.996L271.361 691.152C269.055 692.005 266.749 692.824 264.374 693.573L262.517 694.138ZM388.714 693.573L386.939 692.109C388.876 689.803 390.778 687.335 392.612 684.902L394.456 686.286C392.6 688.765 390.675 691.21 388.714 693.585V693.573ZM144.403 692.132C141.616 690.723 138.92 689.14 136.332 687.393L137.612 685.479C140.124 687.175 142.739 688.715 145.441 690.091L144.403 692.132ZM279.905 687.624L278.959 685.514C281.738 684.268 284.494 682.908 287.157 681.489L288.241 683.519C285.531 684.983 282.73 686.355 279.905 687.635V687.624ZM9.07383 686.955C7.92082 684.107 6.76781 681.19 5.79928 678.226L8.00153 677.511C8.93547 680.394 10.0078 683.277 11.1954 686.044L9.07383 686.955ZM128.987 681.639C126.663 679.536 124.508 677.254 122.542 674.813L124.34 673.372C126.229 675.722 128.303 677.916 130.544 679.933L128.987 681.639ZM296.324 678.884L295.101 676.923C297.673 675.309 300.221 673.591 302.665 671.815L304.026 673.672C301.501 675.494 298.906 677.246 296.324 678.884ZM399.876 678.745L397.962 677.454C399.68 674.929 401.34 672.334 402.931 669.751L404.891 670.904C403.265 673.568 401.571 676.197 399.841 678.745H399.876ZM3.33184 669.232C2.64003 666.223 2.07505 663.144 1.65997 660.066L3.96599 659.754C4.38108 662.764 4.92299 665.773 5.60327 668.725L3.33184 669.232ZM311.313 667.941L309.825 666.177C312.131 664.217 314.437 662.164 316.594 660.043L318.208 661.703C315.994 663.848 313.619 665.946 311.313 667.941ZM117.261 666.996C115.75 664.242 114.477 661.364 113.456 658.394L115.635 657.644C116.61 660.489 117.829 663.243 119.279 665.877L117.261 666.996ZM409.503 662.925L407.485 661.772C408.95 659.097 410.368 656.364 411.705 653.62L413.769 654.635C412.42 657.448 410.991 660.227 409.503 662.925V662.925ZM324.653 654.992L322.935 653.459C324.953 651.153 326.925 648.846 328.792 646.437L330.614 647.855C328.7 650.322 326.694 652.698 324.653 654.992V654.992ZM0.783681 650.784C0.69144 648.87 0.633789 646.921 0.633789 645.018C0.633789 643.865 0.633789 642.712 0.633789 641.559L2.93981 641.628C2.93981 642.781 2.88216 643.934 2.88216 645.088C2.88216 646.979 2.93981 648.893 3.03205 650.772L0.783681 650.784ZM111.138 649.308C110.648 646.44 110.347 643.544 110.239 640.637V639.91L112.545 639.991V640.625C112.657 643.404 112.945 646.173 113.41 648.916L111.138 649.308ZM417.643 646.264L415.533 645.341C416.687 642.562 417.897 639.703 418.993 636.843L421.149 637.662C420.042 640.556 418.866 643.404 417.643 646.264V646.264ZM336.079 640.337L334.177 639.045C335.872 636.555 337.509 633.949 339.066 631.309L341.049 632.462C339.481 635.16 337.832 637.8 336.079 640.337V640.337ZM3.64315 632.439L1.33713 632.185C1.6715 629.118 2.1327 626.028 2.70921 622.96L5.01523 623.387C4.4272 626.397 3.96599 629.429 3.64315 632.439ZM113.514 631.02L111.208 630.594C111.758 627.503 112.615 624.474 113.767 621.554L115.912 622.407C114.826 625.191 114.023 628.076 113.514 631.02V631.02ZM424.239 628.922L422.048 628.195C422.993 625.324 423.893 622.43 424.735 619.421L426.948 620.055C426.107 623.03 425.196 626.016 424.239 628.922V628.922ZM345.5 624.309L343.447 623.272C344.808 620.574 346.122 617.783 347.333 614.981L349.443 615.892C348.209 618.752 346.895 621.588 345.5 624.321V624.309ZM120.213 614.578L118.345 613.217C120.211 610.638 122.405 608.312 124.871 606.299L126.324 608.098C124.01 609.979 121.956 612.158 120.213 614.578V614.578ZM7.02147 614.474L4.79616 613.874C5.60327 610.888 6.52568 607.902 7.54033 604.984L9.71952 605.745C8.7164 608.64 7.81705 611.58 7.02147 614.509V614.474ZM429.289 611.015L427.052 610.473C427.744 607.533 428.401 604.512 429.001 601.502L431.307 601.952C430.661 605.053 430.004 608.109 429.289 611.119V611.015ZM352.879 607.198L350.711 606.414C351.749 603.554 352.706 600.649 353.582 597.709L355.784 598.366C354.908 601.398 353.974 604.373 352.879 607.267V607.198ZM133.807 603.324L132.78 601.26C135.597 599.875 138.519 598.718 141.52 597.801L142.201 600.003C139.336 600.91 136.549 602.044 133.864 603.393L133.807 603.324ZM151.044 597.928L150.618 595.622C153.454 595.08 156.475 594.618 159.842 594.215L160.107 596.521C156.809 596.936 153.881 597.386 151.044 597.928ZM13.0517 597.282L10.9417 596.359C12.187 593.511 13.536 590.686 14.9773 587.965L17.0181 589.049C15.6114 591.701 14.2739 594.468 13.0517 597.282ZM169.273 595.702L169.1 593.396C171.764 593.2 174.612 593.027 178.324 592.831L178.451 595.137C174.75 595.322 171.914 595.495 169.273 595.691V595.702ZM187.721 594.688L187.606 592.381C190.166 592.255 193.521 592.082 196.83 591.851L196.992 594.157C193.625 594.365 190.247 594.549 187.687 594.676L187.721 594.688ZM206.17 593.281L205.893 590.975C206.762 590.875 207.615 590.759 208.453 590.629L215.013 589.718L215.325 592.024L208.787 592.935C207.934 593.05 207.057 593.166 206.181 593.269L206.17 593.281ZM432.863 592.9L430.557 592.543C431.03 589.568 431.445 586.501 431.814 583.445L434.12 583.71C433.774 586.789 433.348 589.879 432.875 592.889L432.863 592.9ZM224.491 590.733L224.157 588.426C227.147 588.004 230.187 587.55 233.277 587.066L233.634 589.372C230.602 589.856 227.489 590.364 224.491 590.733ZM358.171 589.453L355.934 588.934C356.626 585.947 357.237 582.926 357.756 579.952L360.062 580.344C359.509 583.365 358.886 586.432 358.171 589.453V589.453ZM242.755 587.815L242.34 585.509C245.533 584.921 248.485 584.356 251.356 583.722L251.84 586.028C248.946 586.651 245.972 587.239 242.755 587.815ZM260.868 583.906L260.292 581.67C263.336 580.897 266.311 580.055 269.124 579.19L269.804 581.393C266.956 582.292 263.947 583.122 260.868 583.906V583.906ZM21.5955 581.139L19.6008 579.905C21.2842 577.253 23.0599 574.682 24.9277 572.249L26.761 573.644C24.9969 576.02 23.2443 578.545 21.5955 581.139ZM278.602 578.406L277.795 576.239C280.712 575.143 283.56 573.933 286.246 572.78L287.203 574.878C284.471 576.089 281.577 577.288 278.602 578.406ZM435.077 574.486L432.771 574.29C432.886 572.895 433.002 571.534 433.082 570.185C433.198 568.525 433.313 566.841 433.417 565.1L435.723 565.25C435.607 566.98 435.504 568.709 435.388 570.347C435.296 571.696 435.192 573.068 435.077 574.486V574.486ZM361.284 571.131L358.978 570.888C359.301 567.81 359.52 564.743 359.635 561.768L359.693 560.119L361.999 560.211L361.93 561.849C361.872 564.87 361.642 567.994 361.307 571.131H361.284ZM295.493 570.658L294.34 568.64C297.038 567.13 299.644 565.527 302.089 563.843L303.392 565.746C300.936 567.464 298.284 569.113 295.516 570.658H295.493ZM32.6068 566.645L30.9119 565.077C33.0094 562.779 35.2262 560.593 37.5532 558.528L39.0867 560.246C36.828 562.265 34.6766 564.401 32.6414 566.645H32.6068ZM310.828 560.073L309.33 558.32C311.634 556.351 313.828 554.257 315.902 552.048L317.585 553.627C315.466 555.899 313.222 558.051 310.863 560.073H310.828ZM436.195 556.014L433.889 555.899C434.035 552.901 434.178 549.826 434.316 546.674L436.622 546.778C436.53 549.926 436.391 553.016 436.23 556.014H436.195ZM46.2585 554.619L44.9671 552.728C47.5409 550.937 50.2379 549.33 53.0382 547.92L54.0759 549.984C51.3648 551.344 48.7526 552.893 46.2585 554.619V554.619ZM362.345 550.964L360.039 550.895C360.131 548.02 360.224 544.945 360.316 541.67L362.622 541.728C362.53 545.018 362.437 548.096 362.345 550.964ZM323.592 546.432L321.69 545.06C322.785 543.561 323.846 542.004 324.838 540.448C325.46 539.456 326.071 538.453 326.659 537.45L328.643 538.603C328.043 539.618 327.42 540.632 326.786 541.647C325.818 543.284 324.722 544.887 323.592 546.432ZM62.4006 546.363L61.5474 544.241C64.3492 543.088 67.3124 542.039 70.2411 541.001L70.9906 543.181C68.0273 544.241 65.1678 545.256 62.4006 546.363V546.363ZM79.6958 540.31L79.0155 538.107C81.9096 537.219 84.9074 536.366 87.9283 535.547L88.5279 537.773C85.5531 538.58 82.5783 539.433 79.7188 540.31H79.6958ZM437.014 537.542L434.708 537.461C434.812 534.429 434.927 531.35 435.019 528.237L437.325 528.306C437.241 531.435 437.129 534.513 436.991 537.542H437.014ZM97.4637 535.524L96.9333 533.287C99.8389 532.596 102.871 531.915 105.961 531.27L106.434 533.576C103.367 534.164 100.312 534.844 97.4637 535.524ZM362.887 532.492L360.581 532.434C360.662 529.471 360.742 526.381 360.835 523.21L363.141 523.279C363.048 526.492 362.964 529.563 362.887 532.492ZM115.462 531.754L115.047 529.448C117.953 528.906 121.02 528.364 124.156 527.845L124.525 530.151C121.412 530.67 118.368 531.212 115.462 531.754V531.754ZM333.22 530.474L331.156 529.436C332.54 526.715 333.831 523.936 335.007 521.146L337.129 522.034C335.883 524.882 334.569 527.718 333.22 530.474ZM133.668 528.733L133.334 526.427C136.378 525.977 139.433 525.539 142.477 525.124L142.789 527.43C139.71 527.845 136.666 528.283 133.622 528.733H133.668ZM151.92 526.254L151.644 523.948L160.799 522.795L161.075 525.101L151.92 526.254ZM170.23 524.086L169.977 521.78L179.201 520.754L179.466 523.06L170.23 524.086ZM188.575 522.011L188.309 519.704L197.464 518.621L197.741 520.927C194.674 521.296 191.619 521.653 188.529 522.011H188.575ZM206.908 519.704L206.596 517.398C209.79 516.972 212.834 516.487 215.659 515.98L216.074 518.286C213.168 518.874 210.09 519.312 206.861 519.751L206.908 519.704ZM437.66 519.024L435.354 518.966C435.431 515.892 435.507 512.817 435.584 509.742H437.89C437.79 512.909 437.698 516.019 437.614 519.07L437.66 519.024ZM122.219 518.205H122.08V515.899H122.219C125.24 515.899 128.261 515.761 131.166 515.484L131.385 517.79C128.411 518.067 125.332 518.205 122.219 518.205ZM112.764 517.779C112.142 517.779 111.507 517.664 110.873 517.594C108.406 517.341 105.938 517.029 103.552 516.683L103.874 514.377C106.238 514.723 108.683 515.023 111.115 515.288L112.972 515.461L112.764 517.779ZM140.609 516.395L140.137 514.089C143.102 513.484 146.031 512.714 148.911 511.783L149.626 513.974C146.688 514.952 143.697 515.76 140.667 516.395H140.609ZM225.102 516.395L224.549 514.158C227.65 513.397 230.602 512.544 233.312 511.622L234.049 513.812C231.294 514.723 228.296 515.6 225.114 516.372L225.102 516.395ZM94.4197 515.081C91.3181 514.447 88.2742 513.72 85.3801 512.913L85.9912 510.688C88.8392 511.483 91.837 512.198 94.881 512.821L94.4197 515.081ZM363.371 514.031L361.065 513.974L361.284 504.749L363.59 504.807L363.371 514.031ZM340.403 513.34L338.213 512.602C339.193 509.754 340.092 506.836 340.899 503.85L343.124 504.45C342.306 507.459 341.395 510.457 340.403 513.34V513.34ZM158.331 510.584L157.351 508.497C160.098 507.223 162.766 505.787 165.341 504.196L166.494 506.168C163.861 507.795 161.135 509.27 158.331 510.584V510.584ZM242.732 510.296L241.74 508.22C244.467 506.934 247.091 505.442 249.592 503.758L250.895 505.672C248.295 507.418 245.566 508.964 242.732 510.296V510.296ZM76.5135 510.111C73.5387 509.039 70.6447 507.805 67.9005 506.583L68.869 504.484C71.544 505.729 74.3804 506.882 77.2975 507.943L76.5135 510.111ZM59.6334 502.259C56.9605 500.672 54.3741 498.944 51.8852 497.082L53.2688 495.237C55.6961 497.05 58.2211 498.728 60.8325 500.264L59.6334 502.259ZM174.22 500.829L172.801 499.019C175.208 497.147 177.517 495.153 179.72 493.046L181.311 494.706C179.056 496.87 176.689 498.913 174.22 500.829V500.829ZM438.04 500.61H435.734C435.803 497.535 435.861 494.46 435.907 491.385H438.213C438.167 494.46 438.109 497.535 438.04 500.61V500.61ZM258.17 499.722L256.556 498.085C258.687 495.961 260.617 493.645 262.321 491.166L264.212 492.492C262.428 495.082 260.41 497.502 258.182 499.722H258.17ZM363.798 495.559H361.492C361.561 492.485 361.63 489.41 361.699 486.335H364.005C363.944 489.456 363.879 492.531 363.809 495.559H363.798ZM345.257 495.421L342.951 494.948C343.551 492.054 344.104 489.022 344.566 485.943L346.872 486.289C346.433 489.402 345.903 492.481 345.269 495.421H345.257ZM44.725 491.074C42.4644 488.937 40.3315 486.67 38.3373 484.283L40.1129 482.807C42.0406 485.14 44.1083 487.354 46.3046 489.437L44.725 491.074ZM187.698 487.903L185.946 486.404C187.871 484.156 189.774 481.792 191.572 479.221L193.452 480.57C191.572 483.13 189.635 485.609 187.664 487.903H187.698ZM268.963 484.386L266.876 483.406C268.149 480.671 269.231 477.851 270.116 474.966L272.318 475.646C271.389 478.634 270.256 481.554 268.928 484.386H268.963ZM438.455 482.08H436.149C436.149 478.99 436.23 475.911 436.265 472.856H438.571C438.444 475.958 438.398 479.036 438.363 482.126L438.455 482.08ZM364.305 477.053H361.999L362.195 467.829H364.501L364.305 477.053ZM348.163 477.053L345.857 476.811C346.168 473.894 346.434 470.826 346.641 467.667L348.947 467.829C348.659 471.046 348.394 474.147 348.082 477.088L348.163 477.053ZM32.872 476.684C31.1909 474.078 29.6513 471.384 28.2599 468.613L30.3238 467.575C31.6815 470.283 33.1905 472.912 34.8436 475.45L32.872 476.684ZM198.548 472.752L196.588 471.599C198.133 469.051 199.644 466.364 201.073 463.631L203.126 464.692C201.673 467.483 200.139 470.204 198.548 472.752ZM274.532 466.537L272.226 466.099C272.768 463.262 273.217 460.23 273.563 457.082L275.869 457.336C275.569 460.587 275.097 463.689 274.532 466.583V466.537ZM438.582 463.608H436.276C436.276 460.495 436.303 457.42 436.357 454.384H438.663C438.64 457.451 438.613 460.541 438.582 463.654V463.608ZM24.3628 460.068C23.2674 457.244 22.2758 454.303 21.388 451.236L23.6018 450.59C24.4665 453.565 25.4466 456.471 26.5189 459.238L24.3628 460.068ZM364.582 458.593H362.276L362.449 449.368H364.755L364.582 458.593ZM349.374 458.593L347.068 458.5C347.183 455.572 347.275 452.562 347.333 449.276H349.639C349.581 452.643 349.489 455.675 349.362 458.616L349.374 458.593ZM207.15 456.286L205.051 455.353C206.273 452.608 207.449 449.76 208.51 446.878L210.666 447.696C209.583 450.648 208.395 453.531 207.15 456.31V456.286ZM276.596 448.088L274.29 447.996C274.405 445.494 274.451 442.888 274.451 440.236V438.852H276.757V440.259C276.722 442.946 276.722 445.586 276.596 448.111V448.088ZM438.732 445.16H436.426C436.426 442.012 436.426 438.933 436.426 435.935H438.732C438.767 438.956 438.744 442.035 438.732 445.183V445.16ZM19.1396 442.242C18.517 439.302 17.9866 436.223 17.5254 433.087L19.8314 432.764C20.2811 435.843 20.8115 438.875 21.4226 441.77L19.1396 442.242ZM127.615 441.089C127.004 441.089 126.358 441.089 125.701 440.997L125.92 438.691C128.756 439.051 131.633 438.506 134.141 437.134L135.294 439.129C132.958 440.47 130.308 441.167 127.615 441.147V441.089ZM364.916 440.086H362.61C362.61 437.007 362.714 433.929 362.76 430.862H365.066C365.02 433.986 364.962 437.065 364.916 440.144V440.086ZM349.754 440.086H347.448C347.448 438.218 347.448 436.339 347.448 434.436V430.873H349.754V434.436C349.766 436.373 349.766 438.264 349.754 440.132V440.086ZM213.791 438.933L211.589 438.218C212.523 435.347 213.411 432.395 214.218 429.42L216.443 430.031C215.613 433.052 214.725 436.05 213.791 438.956V438.933ZM116.454 438.564C114.523 437.764 112.637 436.859 110.804 435.854C109.859 435.347 108.936 434.817 108.083 434.263L109.328 432.314C110.135 432.845 111 433.352 111.899 433.825C113.802 434.851 115.635 435.728 117.33 436.442L116.454 438.564ZM141.935 432.188L139.952 431.035C141.411 428.429 142.572 425.668 143.411 422.802L145.613 423.494C144.734 426.519 143.516 429.436 141.981 432.188H141.935ZM274.186 429.651C274.109 426.576 274.032 423.501 273.955 420.426H276.261C276.33 423.482 276.411 426.561 276.492 429.651H274.186ZM100.888 428.106C98.7879 425.719 97.0406 423.044 95.6996 420.161L97.7865 419.17C99.0399 421.87 100.666 424.382 102.618 426.63L100.888 428.106ZM438.813 426.711H436.507C436.507 423.517 436.507 420.427 436.507 417.486H438.813C438.828 420.43 438.828 423.505 438.813 426.711ZM16.4646 423.863C16.1994 420.865 16.0034 417.751 15.8766 414.638L18.1826 414.546C18.3095 417.659 18.5055 420.738 18.7591 423.701L16.4646 423.863ZM347.379 421.695C347.379 418.651 347.379 415.584 347.379 412.47H349.685C349.685 415.584 349.685 418.658 349.685 421.695H347.379ZM365.158 421.695H362.852C362.852 418.593 362.933 415.514 362.968 412.47H365.274C365.285 415.503 365.239 418.559 365.205 421.683L365.158 421.695ZM218.645 421.049L216.397 420.542C217.066 417.544 217.677 414.511 218.207 411.548L220.513 411.952C219.994 414.938 219.372 418.005 218.691 421.038L218.645 421.049ZM147.919 414.431L145.613 413.981C145.856 412.759 146.086 411.502 146.305 410.199C146.594 408.446 146.859 406.74 147.101 404.953L149.407 405.264C149.165 407.028 148.9 408.815 148.6 410.568C148.438 411.894 148.208 413.174 147.966 414.419L147.919 414.431ZM92.4942 411.271C91.761 408.234 91.2218 405.153 90.88 402.047L93.186 401.782C93.5133 404.791 94.0371 407.776 94.7541 410.718L92.4942 411.271ZM273.771 411.214C273.717 408.139 273.667 405.064 273.621 401.989H275.927C275.973 405.064 276.023 408.139 276.077 411.214H273.771ZM438.801 408.25H436.495V399.026H438.801V408.25ZM17.952 405.345H15.646C15.646 402.335 15.7037 399.222 15.819 396.12L18.125 396.201C18.0558 399.268 17.9981 402.347 17.9981 405.333L17.952 405.345ZM349.65 403.258H347.344C347.344 400.19 347.344 397.112 347.437 394.033H349.743C349.743 397.112 349.72 400.19 349.697 403.246L349.65 403.258ZM365.389 403.258H363.083C363.083 400.144 363.114 397.069 363.175 394.033H365.481C365.497 397.039 365.481 400.102 365.435 403.223L365.389 403.258ZM221.874 402.785L219.568 402.497C219.937 399.66 220.282 396.581 220.605 393.353L222.911 393.583C222.646 396.8 222.3 399.891 221.92 402.75L221.874 402.785ZM150.468 396.074L148.162 395.866C148.427 392.915 148.646 389.917 148.819 386.711L151.125 386.827C151.044 390.044 150.779 393.065 150.514 396.039L150.468 396.074ZM90.1882 392.788C90.1075 390.539 90.0614 388.106 90.0614 385.57C90.0614 384.889 90.0614 384.209 90.0614 383.517H92.3674C92.3674 384.198 92.3674 384.878 92.3674 385.547C92.3674 388.06 92.3674 390.459 92.4942 392.684L90.1882 392.788ZM273.517 392.788C273.517 389.713 273.49 386.638 273.436 383.563H275.742C275.742 386.607 275.742 389.675 275.823 392.788H273.517ZM438.893 389.836H436.587C436.645 386.78 436.749 383.713 436.853 380.612L439.159 380.692C439.101 383.702 438.997 386.769 438.94 389.801L438.893 389.836ZM18.6323 386.976L16.3263 386.827L16.4531 384.924C16.6222 382.472 16.7913 380.039 16.9604 377.625L19.2665 377.775C19.105 380.185 18.9436 382.629 18.7707 385.085L18.6323 386.976ZM349.916 384.809H347.61L347.771 375.584H350.077L349.916 384.809ZM365.608 384.739H363.302C363.302 381.588 363.321 378.513 363.36 375.515H365.666C365.658 378.513 365.639 381.588 365.608 384.739V384.739ZM223.788 384.324L221.482 384.14C221.72 381.134 221.931 378.059 222.116 374.915L224.422 375.054C224.222 378.205 224.007 381.296 223.776 384.324H223.788ZM151.551 377.544L149.245 377.487C149.315 374.627 149.372 371.618 149.395 368.262H151.701C151.667 371.641 151.609 374.673 151.54 377.544H151.551ZM92.6556 374.316L90.3496 374.224C90.4649 371.399 90.6033 368.378 90.7878 364.999L93.0938 365.138C92.8978 368.493 92.7479 371.491 92.6441 374.316H92.6556ZM273.448 374.316C273.448 371.187 273.448 368.112 273.448 365.091H275.754C275.754 368.101 275.754 371.18 275.754 374.316H273.448ZM439.574 371.41L437.268 371.318C437.383 368.297 437.51 365.23 437.602 362.094L439.908 362.163C439.793 365.287 439.678 368.355 439.562 371.387L439.574 371.41ZM19.8776 368.597L17.5715 368.447L18.148 359.222L20.4541 359.372L19.8776 368.597ZM350.238 366.383H347.932C347.979 363.308 348.013 360.233 348.036 357.158H350.342C350.311 360.21 350.273 363.277 350.227 366.36L350.238 366.383ZM363.394 366.291V357.066H365.7V366.291H363.394ZM224.906 365.876L222.6 365.772C222.738 362.705 222.865 359.626 222.981 356.547L225.287 356.628C225.171 359.753 225.044 362.785 224.895 365.852L224.906 365.876ZM149.407 359.107C149.407 356.144 149.407 353.077 149.338 349.883H151.644C151.644 353.088 151.701 356.155 151.713 359.107H149.407ZM93.6588 355.948L91.3527 355.798C91.4988 353.653 91.6525 351.455 91.8139 349.202C91.8139 348.326 91.9292 347.461 92.01 346.573L94.316 346.758C94.2468 347.634 94.1776 348.499 94.12 349.364C93.9432 351.601 93.7856 353.788 93.6472 355.925L93.6588 355.948ZM273.402 355.867V346.735L275.708 346.631V355.855L273.402 355.867ZM440.127 352.95H437.821C437.821 350.759 437.879 348.534 437.879 346.285C437.879 345.443 437.879 344.602 437.879 343.748H440.185C440.185 344.602 440.185 345.455 440.185 346.297C440.173 348.487 440.15 350.724 440.116 352.927L440.127 352.95ZM21.0075 350.171L18.7015 350.021C18.8936 346.946 19.0935 343.871 19.301 340.797L21.6071 340.958C21.4072 343.994 21.2074 347.065 21.0075 350.171ZM348.071 347.865C348.071 344.786 348.071 341.708 348.002 338.64H350.308C350.308 341.708 350.365 344.798 350.377 347.865H348.071ZM363.325 347.796C363.325 344.509 363.256 341.431 363.198 338.571H365.504C365.562 341.419 365.597 344.498 365.631 347.796H363.325ZM225.575 347.357L223.269 347.288C223.361 344.187 223.43 341.096 223.499 338.064H225.805C225.736 341.177 225.667 344.267 225.575 347.381V347.357ZM149.211 340.624L149.084 331.399H151.39L151.517 340.624H149.211ZM95.1577 337.568L92.8516 337.314C93.186 334.282 93.5665 331.192 94.0047 328.09L96.3107 328.401C95.8725 331.503 95.492 334.57 95.1577 337.591V337.568ZM273.39 337.36C273.39 334.155 273.39 331.076 273.39 328.136H275.696C275.696 331.065 275.696 334.155 275.696 337.36H273.39ZM437.671 334.478C437.568 331.376 437.418 328.297 437.222 325.253L439.528 325.104C439.724 328.125 439.885 331.238 439.989 334.328L437.671 334.478ZM22.2989 331.791L19.9929 331.607C20.2465 328.517 20.5002 325.449 20.7884 322.382L23.0945 322.601C22.7947 325.645 22.541 328.701 22.2989 331.791ZM347.794 329.485C347.702 326.303 347.563 323.213 347.414 320.261L349.72 320.134C349.869 323.074 349.996 326.176 350.1 329.358L347.794 329.485ZM362.933 329.428C362.795 326.314 362.61 323.224 362.38 320.272L364.686 320.088C364.916 323.074 365.112 326.187 365.251 329.312L362.933 329.428ZM225.99 328.909H223.684C223.684 325.726 223.765 322.636 223.799 319.684H226.105C225.99 322.624 225.99 325.715 225.99 328.909ZM148.992 322.198C148.946 319.223 148.907 316.148 148.876 312.973H151.182C151.182 316.148 151.221 319.223 151.298 322.198H148.992ZM97.6943 319.396L95.3883 319.015C95.8956 315.971 96.4606 312.916 97.0601 309.906L99.3662 310.356C98.7666 313.319 98.2016 316.363 97.6943 319.396ZM273.321 318.969C273.321 315.614 273.24 312.535 273.183 309.745H275.489C275.489 312.524 275.592 315.614 275.627 318.969H273.321ZM436.472 316.19C436.172 313.158 435.815 310.091 435.423 307.07L437.729 306.758C438.133 309.814 438.49 312.904 438.79 315.983L436.472 316.19ZM24.0169 313.469L21.7108 313.216C22.0567 310.068 22.4372 306.978 22.8639 303.991L25.1699 304.302C24.7433 307.266 24.3628 310.333 24.0169 313.469ZM361.469 311.163C361.1 308.073 360.662 305.017 360.177 302.089L362.483 301.708C362.979 304.671 363.417 307.762 363.798 310.933L361.469 311.163ZM346.802 311.163C346.549 308.027 346.249 304.948 345.915 302.019L348.221 301.766C348.567 304.718 348.866 307.819 349.12 310.99L346.802 311.163ZM226.14 310.483H223.834L223.891 301.258H226.197L226.14 310.483ZM148.738 303.749C148.738 300.936 148.719 298.045 148.68 295.078V294.525H150.986V295.078C150.986 298.053 150.986 300.936 151.044 303.749H148.738ZM101.292 301.351L99.0433 300.832C99.7351 297.822 100.485 294.79 101.269 291.838L103.494 292.426C102.721 295.355 101.983 298.364 101.292 301.351ZM272.825 300.567C272.721 298.872 272.595 297.465 272.445 296.369C272.23 294.805 271.883 293.262 271.407 291.757L273.609 291.065C274.136 292.697 274.522 294.372 274.762 296.07C274.912 297.223 275.051 298.676 275.166 300.417L272.825 300.567ZM434.062 297.961C433.555 294.974 433.002 291.93 432.391 288.932L434.697 288.471C435.308 291.504 435.85 294.571 436.38 297.58L434.062 297.961ZM26.5189 295.263L24.2129 294.894C24.7087 291.826 25.2621 288.759 25.8386 285.784L28.1446 286.223C27.522 289.174 26.9801 292.218 26.5189 295.263ZM358.482 293.06C357.825 290.062 357.087 287.064 356.28 284.17L358.506 283.559C359.313 286.488 360.062 289.52 360.731 292.564L358.482 293.06ZM344.681 292.876C344.185 289.751 343.632 286.718 343.021 283.859L345.327 283.386C345.938 286.28 346.48 289.347 346.998 292.518L344.681 292.876ZM226.278 291.965H223.972V290.477C224.024 287.799 224.411 285.138 225.125 282.556L227.339 283.178C226.683 285.573 226.33 288.041 226.29 290.523L226.278 291.965ZM151.113 285.335L148.807 285.254C148.911 282.095 149.096 278.981 149.338 276.03L151.644 276.226C151.413 279.131 151.229 282.21 151.113 285.335ZM267.567 283.709C265.957 281.19 264.057 278.868 261.906 276.791L263.509 275.13C265.788 277.334 267.804 279.795 269.516 282.464L267.567 283.709ZM105.938 283.571L103.771 282.913C104.67 279.915 105.615 276.94 106.584 274.081L108.775 274.83C107.818 277.655 106.884 280.596 105.984 283.571H105.938ZM430.384 279.961C429.785 277.402 429.139 274.83 428.47 272.305C427.675 269.284 426.845 266.309 426.014 263.438L428.228 262.804C429.07 265.687 429.888 268.685 430.696 271.706C431.364 274.265 432.022 276.86 432.621 279.431L430.384 279.961ZM29.9779 277.24L27.7757 276.733C28.4675 273.723 29.2285 270.702 30.0817 267.751L32.307 268.362C31.4653 271.267 30.7159 274.254 29.9779 277.24ZM353.501 275.43C352.521 272.57 351.438 269.665 350.296 266.851L352.429 265.986C353.582 268.858 354.735 271.752 355.681 274.68L353.501 275.43ZM231.282 275.43L229.495 273.977C231.541 271.418 234.187 269.402 237.197 268.108L238.108 270.23C235.45 271.365 233.11 273.135 231.294 275.384L231.282 275.43ZM340.818 275.015C339.965 271.994 339.02 269.077 338.017 266.332L340.184 265.537C341.21 268.327 342.167 271.302 343.032 274.392L340.818 275.015ZM254.804 271.556C252.583 270.287 250.155 269.424 247.632 269.007C247.274 269.007 246.917 268.915 246.548 268.892L246.733 266.586C247.148 266.586 247.551 266.667 247.966 266.724C250.762 267.177 253.453 268.13 255.911 269.538L254.804 271.556ZM152.601 267.151L150.295 266.851C150.721 263.715 151.229 260.625 151.828 257.627L154.134 258.088C153.558 260.936 153.05 263.98 152.635 267.059L152.601 267.151ZM111.865 266.275L109.709 265.456C110.862 262.539 112.015 259.691 113.168 256.866L115.278 257.788C114.148 260.44 112.995 263.3 111.899 266.182L111.865 266.275ZM34.7975 259.633L32.5953 258.941C33.5177 256.024 34.5093 253.072 35.547 250.167L37.7262 250.951C36.7231 253.73 35.743 256.647 34.8321 259.541L34.7975 259.633ZM346.63 258.572C345.361 255.886 343.978 253.13 342.513 250.374L344.554 249.29C346.03 252.081 347.437 254.871 348.716 257.592L346.63 258.572ZM334.488 257.95C332.966 254.594 331.733 251.942 330.614 249.613L332.701 248.61C333.854 250.916 335.007 253.626 336.587 257.004L334.488 257.95ZM423.351 254.744C422.417 251.792 421.437 248.864 420.434 246.027L422.613 245.266C423.616 248.114 424.608 251.031 425.553 254.041L423.351 254.744ZM119.175 249.463L117.111 248.437C118.518 245.6 119.97 242.833 121.446 240.227L123.453 241.38C122.034 243.848 120.593 246.569 119.209 249.371L119.175 249.463ZM156.233 249.244L154.007 248.621C154.861 245.554 155.841 242.579 156.913 239.766L159.069 240.585C158.054 243.294 157.097 246.154 156.267 249.152L156.233 249.244ZM338.028 242.326C336.552 239.789 334.938 237.16 333.243 234.485L335.192 233.251C336.898 235.949 338.524 238.601 340.023 241.15L338.028 242.326ZM40.9892 242.326L38.8446 241.461C39.9976 238.648 41.2083 235.776 42.4766 232.951L44.5866 233.897C43.3644 236.653 42.1537 239.489 41.0238 242.28L40.9892 242.326ZM326.463 241.415C324.861 238.509 323.304 235.972 321.713 233.655L323.615 232.352C325.37 234.92 326.994 237.576 328.481 240.308L326.463 241.415ZM417.24 237.379C416.087 234.497 414.934 231.614 413.781 228.893L415.891 227.97C417.102 230.749 418.289 233.632 419.431 236.537L417.24 237.379ZM128.215 233.505L126.289 232.237C128.03 229.573 129.852 227.025 131.685 224.649L133.507 226.056C131.743 228.305 129.967 230.841 128.249 233.459L128.215 233.505ZM162.736 232.214L160.672 231.176C162.088 228.388 163.678 225.692 165.434 223.104L167.336 224.407C165.655 226.897 164.13 229.488 162.77 232.167L162.736 232.214ZM328.227 226.806L327.559 225.803C326.037 223.566 324.469 221.409 322.877 219.403L324.688 217.973C326.313 220.026 327.916 222.228 329.461 224.523L330.141 225.514L328.227 226.806ZM316.086 226.598C314.039 224.4 311.809 222.379 309.422 220.556L310.828 218.723C313.308 220.626 315.623 222.736 317.747 225.03L316.086 226.598ZM48.4953 225.595L46.4314 224.569C47.7689 221.859 49.1986 219.092 50.6745 216.348L52.7038 217.443C51.2741 220.118 49.8674 222.862 48.5299 225.549L48.4953 225.595ZM409.918 220.556C408.581 217.812 407.186 215.056 405.744 212.393L407.774 211.297C409.227 213.995 410.645 216.774 411.994 219.553L409.918 220.556ZM139.445 219.08L137.761 217.501C139.064 216.117 140.402 214.779 141.739 213.523C142.65 212.669 143.573 211.839 144.484 211.032L146.005 212.773C145.106 213.557 144.207 214.364 143.307 215.206C142.016 216.417 140.667 217.72 139.445 219.08ZM172.951 217.27L171.256 215.713C173.385 213.4 175.699 211.263 178.175 209.325L179.604 211.136C177.228 213.002 175.004 215.053 172.951 217.27V217.27ZM301.893 215.621C299.234 214.176 296.497 212.879 293.695 211.735L294.571 209.602C297.453 210.777 300.267 212.113 303 213.603L301.893 215.621ZM316.882 212.565C314.772 210.407 312.527 208.385 310.16 206.512L311.578 204.69C314.015 206.62 316.325 208.703 318.496 210.928L316.882 212.565ZM57.2236 209.383L55.2404 208.23C56.5433 205.924 57.9154 203.687 59.299 201.45L60.0139 200.297L61.9625 201.519L61.2591 202.672C59.8871 204.886 58.5265 207.146 57.2236 209.383ZM285.116 208.611C282.395 207.746 279.444 206.904 276.33 206.097L276.907 203.86C280.055 204.679 283.052 205.532 285.82 206.42L285.116 208.611ZM153.097 207.019L151.724 205.174C154.238 203.306 156.844 201.554 159.461 199.951L160.614 201.923C158.101 203.491 155.564 205.244 153.097 207.019V207.019ZM187.099 206.143L185.946 204.125C188.687 202.611 191.539 201.308 194.478 200.228L195.274 202.384C192.457 203.427 189.724 204.684 187.099 206.143V206.143ZM401.248 204.379C399.703 201.784 398.065 199.179 396.37 196.619L398.296 195.35C400.002 197.933 401.663 200.574 403.231 203.191L401.248 204.379ZM267.406 203.998C264.593 203.387 261.56 202.845 258.401 202.2L258.816 199.893C262.01 200.481 265.054 201.046 267.89 201.704L267.406 203.998ZM302.642 201.473C300.02 199.98 297.291 198.681 294.479 197.587L295.32 195.443C298.234 196.58 301.062 197.925 303.784 199.467L302.642 201.473ZM249.338 200.631C246.71 200.205 243.965 199.778 241.129 199.363L240.253 199.236L240.575 196.93L241.475 197.057C244.323 197.484 247.067 197.899 249.719 198.337L249.338 200.631ZM203.99 199.859L203.495 197.61C206.538 196.939 209.618 196.442 212.719 196.123L212.949 198.429C209.939 198.732 206.947 199.205 203.99 199.847V199.859ZM231.155 198.245C228.284 198.037 225.46 197.956 222.738 197.933H222.035V195.627H222.773C225.54 195.627 228.423 195.731 231.34 195.95L231.155 198.245ZM168.639 197.541L167.624 195.466C170.415 194.105 173.286 192.848 176.18 191.753L176.998 193.909C174.174 194.97 171.36 196.192 168.639 197.53V197.541ZM285.831 194.866C283.087 194.174 280.158 193.598 276.895 193.102L277.241 190.796C280.585 191.315 283.571 191.949 286.385 192.606L285.831 194.866ZM66.9781 193.84L65.0756 192.56C66.8282 190 68.6384 187.464 70.4717 185.019L72.3165 186.403C70.5063 188.801 68.7076 191.303 66.9781 193.84ZM267.798 191.937L264.339 191.568C262.448 191.372 260.557 191.176 258.678 190.957L258.943 188.651L264.581 189.251L268.098 189.631L267.798 191.937ZM185.634 191.073L185.035 188.847C187.998 188.04 191.065 187.348 194.132 186.806L194.536 189.112C191.561 189.608 188.563 190.254 185.634 191.073ZM249.419 190.139L240.195 189.366L240.379 187.06L249.604 187.844L249.419 190.139ZM391.159 189.101C389.418 186.679 387.561 184.212 385.659 181.767L387.469 180.349C389.395 182.817 391.274 185.307 393.038 187.752L391.159 189.101ZM231.052 188.663C227.962 188.421 224.848 188.178 221.828 187.971L221.989 185.665C224.998 185.872 228.111 186.103 231.213 186.345L231.052 188.663ZM203.598 187.948L203.402 185.642C206.343 185.388 209.363 185.273 212.373 185.273H212.719V187.579H212.384C209.433 187.556 206.481 187.671 203.598 187.948ZM77.9202 179.196L76.133 177.732C78.1392 175.264 80.1801 172.958 82.2094 170.652L83.9273 172.197C81.8635 174.446 79.9033 176.786 77.9663 179.162L77.9202 179.196ZM379.848 174.584C377.957 172.278 375.939 169.972 373.864 167.666L375.593 166.144C377.692 168.519 379.721 170.883 381.612 173.166L379.848 174.584ZM90.2228 165.532L88.574 163.907C90.7647 161.704 93.0131 159.537 95.2614 157.473L96.8526 159.179C94.5466 161.208 92.3789 163.353 90.2228 165.532ZM367.81 160.77L366.196 159.018C364.651 157.357 363.048 155.731 361.457 154.198L363.048 152.537C364.686 154.106 366.311 155.755 367.88 157.45C368.433 158.034 368.975 158.622 369.505 159.214L367.81 160.77ZM103.771 153.16L102.306 151.384C104.693 149.413 107.149 147.487 109.616 145.619L110.989 147.476C108.521 149.309 106.077 151.211 103.771 153.16ZM354.608 148.156C352.245 146.242 349.777 144.42 347.287 142.737L348.578 140.822C351.126 142.541 353.64 144.408 356.061 146.369L354.608 148.156ZM118.483 142.241L117.203 140.315C119.774 138.609 122.426 136.96 125.078 135.392L126.231 137.386C123.591 138.92 120.974 140.557 118.437 142.241H118.483ZM339.504 137.997C336.875 136.568 334.131 135.207 331.329 133.973L332.251 131.863C335.111 133.12 337.924 134.504 340.611 135.98L339.504 137.997ZM134.268 132.947L133.207 130.895C135.94 129.476 138.753 128.116 141.566 126.859L142.512 128.958C139.699 130.203 136.92 131.54 134.222 132.947H134.268ZM322.831 130.641C320.053 129.672 317.066 128.762 314.092 127.943L314.703 125.717C317.77 126.559 320.756 127.482 323.581 128.462L322.831 130.641ZM305.202 125.787C302.354 125.176 299.437 124.634 296.197 124.046L296.589 121.739C299.84 122.304 302.815 122.892 305.686 123.492L305.202 125.787ZM150.963 125.418L150.133 123.261C153.016 122.108 155.956 121.105 158.885 120.16L159.599 122.351C156.659 123.296 153.754 124.334 150.917 125.429L150.963 125.418ZM287.1 122.616C284.09 122.178 281.046 121.762 277.979 121.347L278.291 119.041C281.369 119.456 284.413 119.871 287.434 120.31L287.1 122.616ZM268.847 120.148L266.161 119.791C266.161 119.791 263.751 119.445 259.692 118.961L259.969 116.654C264.062 117.15 266.484 117.496 266.484 117.496L269.147 117.854L268.847 120.148ZM168.339 119.802L167.763 117.565C170.761 116.781 173.816 116.089 176.814 115.49L177.275 117.796C174.312 118.338 171.303 119.03 168.339 119.802ZM250.503 117.923C247.69 117.623 244.611 117.323 241.279 117.023L241.486 114.717C244.784 115.006 247.874 115.317 250.71 115.617L250.503 117.923ZM232.147 116.285C229.011 116.055 225.909 115.87 222.923 115.72L223.038 113.414C226.013 113.564 229.126 113.76 232.262 113.979L232.147 116.285ZM186.28 116.285L186.003 113.979C188.817 113.633 191.941 113.38 195.285 113.207L195.4 115.513C192.114 115.674 189.094 115.928 186.28 116.262V116.285ZM213.756 115.386C211.116 115.317 208.545 115.282 206.124 115.282H204.567V112.999H206.135C208.579 112.999 211.162 112.999 213.826 113.103L213.756 115.386Z" fill="#FFED00"/>
<path d="M285.243 157.553L262.079 140.73L261.099 150.093L226.693 146.484L225.679 156.239L260.073 159.848L259.093 169.199L285.243 157.553Z" fill="#575756"/>
<path d="M362.034 672.311L386.028 656.699L377.634 652.432L393.326 621.6L384.587 617.161L368.906 647.993L360.512 643.715L362.034 672.311Z" fill="#575756"/>
<path d="M60.3143 606.748L45.498 631.239L54.9066 631.435L54.1802 666.015L63.9808 666.223L64.7072 631.631L74.1158 631.839L60.3143 606.748Z" fill="#575756"/>
<path d="M313.447 364.169L299.553 389.202L308.961 389.04L309.538 423.62L319.338 423.459L318.762 388.879L328.17 388.718L313.447 364.169Z" fill="#575756"/>
<path d="M60.3143 320.215L45.498 344.705L54.9066 344.901L54.1802 379.482L63.9808 379.689L64.7072 345.109L74.1158 345.293L60.3143 320.215Z" fill="#575756"/>
<path d="M188.414 401.493L203.242 377.002L193.833 376.806L194.548 342.226L184.759 342.019L184.033 376.61L174.624 376.414L188.414 401.493Z" fill="#575756"/>
<path d="M558 393.895H356.604V511.068H558V393.895Z" fill="#E5231F"/>
<path d="M522.603 215.886H457.296V393.895H522.603V215.886Z" fill="#9D9D9C"/>
<path d="M492.624 155.72H457.296V163.238H492.624V155.72Z" fill="#9D9D9C"/>
<path d="M492.624 163.238H457.296V170.756H492.624V163.238Z" fill="#B2B2B2"/>
<path d="M492.624 170.756H457.296V178.274H492.624V170.756Z" fill="#9D9D9C"/>
<path d="M492.624 178.285H457.296V185.803H492.624V178.285Z" fill="#B2B2B2"/>
<path d="M492.624 185.803H457.296V193.321H492.624V185.803Z" fill="#9D9D9C"/>
<path d="M492.624 193.321H457.296V200.839H492.624V193.321Z" fill="#B2B2B2"/>
<path d="M492.624 200.85H457.296V208.368H492.624V200.85Z" fill="#9D9D9C"/>
<path d="M492.624 208.368H457.296V215.886H492.624V208.368Z" fill="#B2B2B2"/>
<path d="M395.932 378.686H371.143V369.611H372.296V377.533H394.779V369.611H395.932V378.686Z" fill="#E5E4E4"/>
<path d="M431.676 359.026H406.887V349.952H408.04V357.873H430.523V349.952H431.676V359.026Z" fill="#E5E4E4"/>
<path d="M370.232 341.223L370.048 332.149L371.201 332.126L371.362 340.047L393.846 339.586L393.685 331.664L394.838 331.641L395.022 340.716L370.232 341.223Z" fill="#E5E4E4"/>
<path d="M406.171 318.6L405.583 309.549L406.736 309.48L407.243 317.378L429.681 315.925L429.174 308.027L430.315 307.946L430.903 316.998L406.171 318.6Z" fill="#E5E4E4"/>
<path d="M367.269 307.346L366.22 298.33L367.373 298.203L368.284 306.067L390.617 303.461L389.695 295.597L390.848 295.459L391.897 304.475L367.269 307.346Z" fill="#E5E4E4"/>
<path d="M400.118 280.55L398.204 271.683L399.334 271.44L400.994 279.177L422.982 274.438L421.31 266.701L422.44 266.459L424.343 275.326L400.118 280.55Z" fill="#E5E4E4"/>
<path d="M417.044 446.439L419.892 447.304C419.732 448.024 419.426 448.702 418.993 449.299C418.588 449.808 418.061 450.205 417.46 450.452C416.728 450.75 415.943 450.891 415.153 450.867C414.195 450.898 413.241 450.729 412.352 450.371C411.572 449.981 410.923 449.372 410.484 448.619C409.919 447.644 409.643 446.528 409.688 445.402C409.639 444.675 409.737 443.946 409.977 443.258C410.216 442.571 410.593 441.939 411.083 441.401C412.062 440.605 413.257 440.123 414.514 440.016C415.77 439.909 417.029 440.183 418.128 440.801C418.943 441.418 419.534 442.285 419.812 443.268L416.952 443.903C416.884 443.652 416.775 443.415 416.629 443.199C416.455 442.957 416.226 442.76 415.961 442.623C415.688 442.491 415.388 442.423 415.084 442.427C414.749 442.413 414.415 442.488 414.118 442.644C413.82 442.8 413.569 443.031 413.389 443.315C413.048 443.946 412.896 444.663 412.951 445.379C412.866 446.214 413.052 447.055 413.482 447.777C413.66 447.995 413.889 448.167 414.147 448.279C414.406 448.392 414.688 448.441 414.969 448.423C415.227 448.442 415.486 448.406 415.729 448.317C415.972 448.227 416.192 448.086 416.376 447.904C416.723 447.483 416.954 446.978 417.044 446.439V446.439Z" fill="white"/>
<path d="M421.056 445.494C420.987 444.763 421.08 444.026 421.328 443.335C421.577 442.644 421.974 442.016 422.493 441.496C423.011 440.977 423.638 440.578 424.329 440.328C425.019 440.078 425.756 439.984 426.487 440.051C427.221 440.005 427.958 440.105 428.653 440.346C429.348 440.588 429.987 440.966 430.534 441.458C431.026 441.987 431.405 442.611 431.649 443.29C431.892 443.97 431.996 444.692 431.952 445.413C431.992 446.456 431.778 447.492 431.33 448.434C430.925 449.206 430.304 449.843 429.543 450.268C428.639 450.733 427.63 450.96 426.614 450.925C425.604 450.957 424.6 450.764 423.674 450.36C422.88 449.96 422.221 449.334 421.783 448.561C421.268 447.623 421.017 446.563 421.056 445.494V445.494ZM424.308 445.494C424.236 446.307 424.443 447.121 424.896 447.8C425.096 448.029 425.345 448.21 425.624 448.33C425.904 448.449 426.207 448.505 426.51 448.492C426.813 448.508 427.116 448.455 427.395 448.337C427.675 448.219 427.924 448.04 428.124 447.812C428.587 447.085 428.79 446.224 428.701 445.367C428.769 444.596 428.556 443.826 428.101 443.199C427.901 442.968 427.65 442.786 427.368 442.666C427.087 442.546 426.781 442.492 426.476 442.507C426.178 442.499 425.882 442.557 425.611 442.679C425.339 442.801 425.099 442.983 424.907 443.211C424.444 443.881 424.231 444.694 424.308 445.505V445.494Z" fill="white"/>
<path d="M433.74 450.74V440.236H439.159C439.936 440.205 440.714 440.291 441.465 440.49C441.99 440.657 442.444 440.994 442.757 441.447C443.09 441.952 443.259 442.548 443.241 443.153C443.252 443.68 443.125 444.201 442.872 444.664C442.616 445.082 442.264 445.433 441.846 445.69C441.483 445.883 441.095 446.023 440.693 446.105C440.993 446.189 441.277 446.322 441.535 446.497C441.727 446.658 441.901 446.84 442.053 447.039C442.225 447.245 442.38 447.465 442.515 447.696L444.083 450.74H440.451L438.71 447.535C438.571 447.225 438.371 446.947 438.122 446.716C437.889 446.554 437.61 446.469 437.326 446.474H436.992V450.74H433.74ZM437.003 444.491H438.375C438.667 444.47 438.956 444.423 439.24 444.352C439.448 444.308 439.632 444.189 439.759 444.018C439.897 443.844 439.97 443.628 439.966 443.407C439.976 443.26 439.951 443.113 439.895 442.978C439.84 442.842 439.753 442.72 439.644 442.623C439.278 442.41 438.854 442.317 438.433 442.358H436.992L437.003 444.491Z" fill="white"/>
<path d="M445.062 440.236H450.459C451.413 440.163 452.358 440.46 453.099 441.066C453.404 441.383 453.639 441.76 453.79 442.173C453.941 442.586 454.004 443.026 453.975 443.465C454.003 443.922 453.932 444.381 453.767 444.808C453.602 445.236 453.346 445.623 453.018 445.944C452.197 446.606 451.153 446.928 450.101 446.843H448.326V450.74H445.062V440.236ZM448.326 444.71H449.121C449.583 444.756 450.047 444.642 450.436 444.387C450.557 444.286 450.655 444.159 450.721 444.015C450.787 443.872 450.819 443.715 450.816 443.557C450.822 443.402 450.796 443.248 450.74 443.103C450.685 442.958 450.601 442.826 450.493 442.715C450.14 442.441 449.692 442.317 449.248 442.369H448.326V444.71Z" fill="white"/>
<path d="M455.313 445.494C455.244 444.763 455.337 444.026 455.585 443.335C455.833 442.644 456.231 442.016 456.75 441.496C457.268 440.977 457.895 440.578 458.585 440.328C459.276 440.078 460.013 439.984 460.744 440.051C461.478 440.005 462.214 440.105 462.909 440.346C463.604 440.588 464.244 440.966 464.791 441.458C465.283 441.987 465.662 442.611 465.906 443.29C466.149 443.97 466.253 444.692 466.209 445.413C466.249 446.456 466.035 447.492 465.587 448.434C465.182 449.206 464.561 449.843 463.799 450.268C462.895 450.733 461.887 450.96 460.871 450.925C459.861 450.957 458.857 450.764 457.931 450.36C457.136 449.96 456.478 449.334 456.04 448.561C455.525 447.623 455.274 446.563 455.313 445.494V445.494ZM458.565 445.494C458.493 446.307 458.7 447.121 459.153 447.8C459.353 448.029 459.602 448.21 459.881 448.33C460.161 448.449 460.463 448.505 460.767 448.492C461.07 448.508 461.373 448.455 461.652 448.337C461.932 448.219 462.181 448.04 462.381 447.812C462.844 447.085 463.047 446.224 462.958 445.367C463.026 444.596 462.813 443.826 462.358 443.199C462.157 442.968 461.907 442.786 461.625 442.666C461.343 442.546 461.038 442.492 460.732 442.507C460.435 442.499 460.139 442.557 459.868 442.679C459.596 442.801 459.356 442.983 459.164 443.211C458.7 443.881 458.488 444.694 458.565 445.505V445.494Z" fill="white"/>
<path d="M467.996 450.74V440.236H473.415C474.192 440.205 474.97 440.291 475.721 440.49C476.244 440.66 476.697 440.996 477.013 441.447C477.346 441.952 477.515 442.548 477.497 443.153C477.508 443.68 477.381 444.201 477.128 444.664C476.872 445.082 476.52 445.433 476.102 445.69C475.739 445.883 475.351 446.023 474.949 446.105C475.249 446.189 475.533 446.322 475.79 446.497C475.983 446.658 476.157 446.84 476.309 447.039C476.481 447.245 476.635 447.465 476.771 447.696L478.339 450.74H474.672L472.931 447.535C472.792 447.225 472.592 446.947 472.343 446.716C472.11 446.554 471.831 446.469 471.547 446.474H471.259V450.74H467.996ZM471.259 444.491H472.631C472.923 444.47 473.212 444.423 473.496 444.352C473.704 444.308 473.888 444.189 474.015 444.018C474.153 443.844 474.226 443.628 474.222 443.407C474.232 443.26 474.207 443.113 474.151 442.978C474.095 442.842 474.009 442.72 473.9 442.623C473.533 442.411 473.11 442.318 472.689 442.358H471.259V444.491Z" fill="white"/>
<path d="M485.845 449.011H482.155L481.636 450.74H478.327L482.27 440.236H485.822L489.765 450.74H486.364L485.845 449.011ZM485.165 446.705L484.012 442.923L482.858 446.705H485.165Z" fill="white"/>
<path d="M489.049 440.236H498.919V442.83H495.61V450.74H492.336V442.83H489.026L489.049 440.236Z" fill="white"/>
<path d="M500.407 440.236H509.112V442.473H503.636V444.145H508.697V446.289H503.636V448.365H509.251V450.74H500.407V440.236Z" fill="white"/>
<path d="M425.991 455.053H429.231V462.974H434.304V465.569H425.991V455.053Z" fill="white"/>
<path d="M435.124 460.322C435.193 459.258 435.556 458.234 436.172 457.364C436.789 456.493 437.635 455.811 438.616 455.393C439.597 454.975 440.674 454.837 441.729 454.995C442.784 455.152 443.774 455.6 444.59 456.286C445.082 456.813 445.462 457.434 445.706 458.112C445.95 458.79 446.052 459.511 446.008 460.23C446.049 461.273 445.835 462.309 445.385 463.251C444.99 464.03 444.367 464.669 443.598 465.084C442.698 465.55 441.694 465.776 440.681 465.742C439.667 465.778 438.658 465.585 437.729 465.176C436.936 464.782 436.277 464.16 435.838 463.389C435.334 462.448 435.088 461.39 435.124 460.322V460.322ZM438.364 460.322C438.289 461.137 438.501 461.953 438.963 462.628C439.171 462.847 439.421 463.022 439.699 463.141C439.976 463.26 440.275 463.322 440.577 463.322C440.879 463.322 441.178 463.26 441.456 463.141C441.733 463.022 441.984 462.847 442.192 462.628C442.647 461.894 442.849 461.032 442.768 460.172C442.827 459.402 442.615 458.635 442.168 458.005C441.964 457.779 441.712 457.601 441.431 457.483C441.15 457.366 440.847 457.311 440.543 457.324C440.244 457.312 439.947 457.368 439.673 457.488C439.4 457.608 439.157 457.789 438.963 458.016C438.504 458.697 438.292 459.515 438.364 460.334V460.322Z" fill="white"/>
<path d="M454.598 455.053H457.838V461.314C457.843 461.914 457.746 462.511 457.549 463.078C457.362 463.623 457.05 464.116 456.639 464.519C456.273 464.902 455.828 465.201 455.336 465.396C454.594 465.646 453.813 465.763 453.03 465.742C452.471 465.739 451.913 465.704 451.358 465.638C450.829 465.587 450.314 465.442 449.836 465.211C449.394 464.988 449.002 464.678 448.683 464.3C448.363 463.955 448.126 463.54 447.991 463.089C447.799 462.516 447.694 461.918 447.68 461.314V455.053H450.931V461.464C450.915 461.709 450.948 461.955 451.03 462.186C451.111 462.418 451.238 462.631 451.404 462.813C451.773 463.126 452.241 463.297 452.724 463.297C453.208 463.297 453.676 463.126 454.044 462.813C454.209 462.631 454.336 462.418 454.418 462.186C454.499 461.954 454.533 461.709 454.517 461.464L454.598 455.053Z" fill="white"/>
<path d="M460.052 455.053H463.084L466.97 460.876V455.053H470.025V465.569H466.97L463.038 459.803V465.569H460.052V455.053Z" fill="white"/>
<path d="M477.508 461.763V459.573H482.524V464.058C481.738 464.616 480.881 465.066 479.976 465.396C479.122 465.642 478.235 465.759 477.347 465.742C476.292 465.785 475.242 465.567 474.291 465.107C473.502 464.677 472.865 464.012 472.47 463.205C472.034 462.282 471.814 461.272 471.824 460.252C471.834 459.232 472.074 458.227 472.527 457.313C473.003 456.467 473.733 455.794 474.614 455.387C475.521 455.006 476.502 454.833 477.485 454.88C478.365 454.842 479.245 454.947 480.091 455.191C480.645 455.388 481.137 455.726 481.521 456.171C481.928 456.663 482.223 457.237 482.385 457.855L479.249 458.408C479.138 458.039 478.907 457.719 478.592 457.497C478.246 457.283 477.846 457.174 477.439 457.186C477.117 457.172 476.797 457.231 476.501 457.359C476.206 457.487 475.943 457.68 475.733 457.924C475.314 458.652 475.093 459.477 475.093 460.316C475.093 461.156 475.314 461.981 475.733 462.709C475.955 462.959 476.232 463.156 476.541 463.283C476.851 463.411 477.185 463.467 477.52 463.447C477.872 463.446 478.222 463.392 478.557 463.286C478.962 463.15 479.349 462.969 479.71 462.744V461.763H477.508Z" fill="white"/>
<path d="M484.449 455.053H493.154V457.359H487.724V459.031H492.774V461.175H487.724V463.239H493.327V465.626H484.472L484.449 455.053Z" fill="white"/>
<path d="M464.525 47.5635V37.0476H469.933C470.71 37.024 471.486 37.1094 472.239 37.3013C472.76 37.4695 473.21 37.8062 473.519 38.2583C473.855 38.7627 474.029 39.3586 474.015 39.9649C474.029 40.4937 473.897 41.0163 473.634 41.4754C473.387 41.901 473.034 42.2547 472.608 42.5016C472.25 42.7049 471.86 42.8453 471.455 42.9167C471.756 43.0064 472.044 43.1384 472.308 43.3087C472.503 43.4717 472.677 43.6575 472.827 43.8622C472.998 44.062 473.149 44.2783 473.277 44.5079L474.856 47.5635H471.178L469.449 44.3465C469.31 44.0398 469.11 43.765 468.861 43.5393C468.626 43.3803 468.349 43.2959 468.065 43.2972H467.777V47.5635H464.525ZM467.788 41.3024H469.16C469.448 41.2801 469.734 41.2339 470.014 41.164C470.227 41.1239 470.416 41.0044 470.544 40.8296C470.682 40.6561 470.755 40.4401 470.752 40.2185C470.758 40.0739 470.733 39.9296 470.677 39.796C470.621 39.6625 470.536 39.5429 470.429 39.446C470.079 39.2475 469.676 39.1629 469.276 39.2038H467.846L467.788 41.3024Z" fill="white"/>
<path d="M482.362 45.8224H478.673L478.165 47.5635H474.845L478.8 37.0476H482.339L486.294 47.5635H482.893L482.362 45.8224ZM481.694 43.5163L480.541 39.7342L479.388 43.5163H481.694Z" fill="white"/>
<path d="M494.054 43.2626L496.902 44.1158C496.739 44.838 496.433 45.5203 496.002 46.1222C495.592 46.6245 495.065 47.0201 494.469 47.2752C493.735 47.5635 492.951 47.7008 492.163 47.6788C491.203 47.7476 490.24 47.61 489.338 47.2752C488.554 46.8913 487.903 46.2807 487.47 45.5226C486.903 44.5523 486.627 43.4397 486.674 42.3171C486.625 41.5888 486.724 40.8581 486.963 40.1687C487.203 39.4792 487.579 38.8452 488.07 38.3045C488.593 37.8153 489.21 37.4382 489.884 37.1963C490.559 36.9544 491.275 36.8528 491.99 36.8977C493.089 36.8402 494.18 37.122 495.114 37.7049C495.924 38.3272 496.514 39.1917 496.798 40.1724L493.927 40.8066C493.863 40.5563 493.758 40.3186 493.615 40.1032C493.437 39.8623 493.203 39.6669 492.935 39.5327C492.667 39.3985 492.371 39.3293 492.07 39.3307C491.735 39.3169 491.402 39.3917 491.104 39.5476C490.807 39.7034 490.555 39.9348 490.376 40.2185C490.033 40.8539 489.881 41.5745 489.937 42.294C489.854 43.1296 490.039 43.9701 490.468 44.6924C490.648 44.9082 490.877 45.079 491.135 45.1911C491.393 45.3032 491.674 45.3535 491.955 45.3381C492.214 45.3587 492.475 45.3219 492.718 45.2302C492.961 45.1385 493.181 44.9942 493.362 44.8077C493.73 44.3661 493.97 43.8315 494.054 43.2626V43.2626Z" fill="white"/>
<path d="M498.47 37.0476H507.175V39.2961H501.721V40.968H506.783V43.1012H501.721V45.1766H507.325V47.5635H498.458L498.47 37.0476Z" fill="white"/>
<path d="M453.941 58.0793L456.789 58.9441C456.63 59.666 456.319 60.3459 455.878 60.9389C455.478 61.4471 454.954 61.8441 454.356 62.092C453.624 62.3886 452.839 62.53 452.05 62.5071C451.092 62.5377 450.138 62.3689 449.248 62.0112C448.473 61.6367 447.821 61.0487 447.369 60.3163C446.813 59.3378 446.541 58.2237 446.585 57.0992C446.528 56.3661 446.619 55.629 446.853 54.9317C447.087 54.2345 447.458 53.5914 447.945 53.0405C448.929 52.2504 450.126 51.7722 451.384 51.6675C452.641 51.5627 453.901 51.836 455.002 52.4524C455.816 53.0702 456.407 53.9364 456.685 54.92L453.814 55.5541C453.744 55.3063 453.639 55.0696 453.503 54.8508C453.329 54.6082 453.1 54.4106 452.834 54.2742C452.561 54.1432 452.261 54.0761 451.958 54.0782C451.622 54.0645 451.289 54.1393 450.991 54.2952C450.694 54.451 450.443 54.6824 450.263 54.9661C449.917 55.5962 449.761 56.3131 449.813 57.03C449.733 57.8654 449.919 58.7046 450.343 59.4284C450.719 59.8182 451.23 60.0488 451.771 60.0724C452.312 60.096 452.841 59.9109 453.249 59.5552C453.598 59.1279 453.836 58.6208 453.941 58.0793V58.0793Z" fill="white"/>
<path d="M457.954 57.1338C457.88 56.4019 457.97 55.6629 458.217 54.97C458.464 54.277 458.861 53.6475 459.381 53.1269C459.9 52.6062 460.529 52.2074 461.221 51.9591C461.913 51.7109 462.652 51.6195 463.384 51.6914C464.117 51.6454 464.851 51.7461 465.544 51.9877C466.237 52.2292 466.875 52.6068 467.42 53.0981C467.913 53.6266 468.294 54.2495 468.54 54.9292C468.785 55.609 468.891 56.3315 468.85 57.0531C468.888 58.0955 468.674 59.1317 468.227 60.0741C467.821 60.8491 467.195 61.4869 466.428 61.9075C465.528 62.3733 464.524 62.5996 463.511 62.5647C462.501 62.5967 461.497 62.4037 460.571 61.9997C459.774 61.6037 459.115 60.9769 458.68 60.2009C458.165 59.2631 457.914 58.2031 457.954 57.1338V57.1338ZM461.205 57.1338C461.133 57.947 461.34 58.7606 461.793 59.4399C462.002 59.6576 462.253 59.8307 462.53 59.949C462.807 60.0673 463.106 60.1283 463.407 60.1283C463.709 60.1283 464.007 60.0673 464.285 59.949C464.562 59.8307 464.813 59.6576 465.022 59.4399C465.479 58.7114 465.682 57.8516 465.598 56.9954C465.661 56.2246 465.449 55.4564 464.998 54.8277C464.796 54.5986 464.545 54.4176 464.264 54.2979C463.983 54.1782 463.678 54.1228 463.373 54.1359C463.073 54.1245 462.775 54.182 462.501 54.304C462.227 54.4259 461.985 54.609 461.793 54.8392C461.337 55.517 461.129 56.3318 461.205 57.1453V57.1338Z" fill="white"/>
<path d="M470.613 51.8874H473.646L477.601 57.6527V51.8874H480.668V62.3802H477.601L473.669 56.6149V62.3802H470.613V51.8874Z" fill="white"/>
<path d="M482.086 51.8874H491.956V54.4818H488.647V62.3802H485.418V54.4703H482.109L482.086 51.8874Z" fill="white"/>
<path d="M493.489 62.3802V51.8874H498.908C499.685 51.8566 500.463 51.9421 501.214 52.1411C501.737 52.3117 502.19 52.6476 502.506 53.0981C502.84 53.6029 503.01 54.1993 502.99 54.8046C503.001 55.3317 502.874 55.8525 502.621 56.3151C502.365 56.7333 502.013 57.0849 501.595 57.3414C501.233 57.5344 500.844 57.6742 500.442 57.7565C500.742 57.8408 501.026 57.9732 501.284 58.1485C501.476 58.3098 501.65 58.4915 501.802 58.6904C501.974 58.8963 502.129 59.1161 502.264 59.3477L503.866 62.3802H500.2L498.459 59.1747C498.32 58.8651 498.12 58.5867 497.871 58.3561C497.638 58.1936 497.359 58.1088 497.075 58.1139H496.787V62.3802H493.489ZM496.752 56.1307H498.101C498.394 56.1097 498.684 56.0595 498.966 55.9808C499.175 55.9453 499.361 55.8294 499.485 55.6579C499.623 55.4844 499.696 55.2684 499.692 55.0468C499.702 54.9002 499.677 54.7534 499.621 54.6175C499.565 54.4817 499.479 54.3604 499.37 54.2627C499.004 54.0495 498.58 53.9567 498.159 53.9975H496.729L496.752 56.1307Z" fill="white"/>
<path d="M504.189 57.1338C504.115 56.4009 504.205 55.6607 504.453 54.9669C504.7 54.273 505.099 53.6429 505.62 53.122C506.14 52.6011 506.771 52.2025 507.464 51.9551C508.158 51.7077 508.898 51.6176 509.631 51.6914C510.364 51.6454 511.098 51.7461 511.791 51.9877C512.484 52.2292 513.122 52.6068 513.667 53.0981C514.158 53.6272 514.538 54.2504 514.781 54.9302C515.025 55.61 515.128 56.3322 515.085 57.0531C515.121 58.0941 514.912 59.129 514.474 60.0741C514.068 60.8491 513.442 61.4869 512.675 61.9075C511.775 62.3733 510.771 62.5996 509.758 62.5647C508.748 62.5967 507.744 62.4037 506.818 61.9997C506.021 61.6037 505.362 60.9769 504.927 60.2009C504.408 59.2642 504.153 58.2041 504.189 57.1338V57.1338ZM507.441 57.1338C507.368 57.947 507.576 58.7606 508.029 59.4399C508.237 59.6576 508.488 59.8307 508.765 59.949C509.043 60.0673 509.341 60.1283 509.643 60.1283C509.944 60.1283 510.243 60.0673 510.52 59.949C510.798 59.8307 511.048 59.6576 511.257 59.4399C511.714 58.7114 511.917 57.8516 511.834 56.9954C511.897 56.2246 511.684 55.4564 511.234 54.8277C511.029 54.6121 510.779 54.4437 510.502 54.3342C510.226 54.2247 509.928 54.1767 509.631 54.1935C509.332 54.1822 509.034 54.2397 508.76 54.3616C508.486 54.4835 508.244 54.6667 508.052 54.8969C507.6 55.5559 507.385 56.3484 507.441 57.1453V57.1338Z" fill="white"/>
<path d="M516.826 51.8874H520.078V59.8089H525.151V62.3802H516.826V51.8874Z" fill="white"/>
<path d="M193.476 82.2127H198.872C199.826 82.14 200.771 82.4373 201.512 83.0429C201.817 83.3597 202.052 83.7367 202.203 84.1496C202.354 84.5626 202.417 85.0026 202.388 85.4413C202.416 85.899 202.345 86.3573 202.18 86.7851C202.015 87.2129 201.759 87.6001 201.431 87.9204C200.61 88.583 199.566 88.9049 198.514 88.8197H196.739V92.7171H193.476V82.2127ZM196.739 86.6866H197.534C197.996 86.7326 198.46 86.6186 198.849 86.3637C198.97 86.263 199.068 86.136 199.134 85.9922C199.2 85.8484 199.232 85.6916 199.229 85.5335C199.235 85.3787 199.209 85.2244 199.153 85.0798C199.098 84.9352 199.014 84.8032 198.906 84.6918C198.553 84.4177 198.105 84.2935 197.661 84.3459H196.739V86.6866Z" fill="white"/>
<path d="M204.222 82.2127H207.473V92.7171H204.222V82.2127Z" fill="white"/>
<path d="M209.064 82.2127H218.946V84.8071H215.614V92.7171H212.385V84.8071H209.064V82.2127Z" fill="white"/>
<path d="M225.31 82.2127H228.55V90.1342H233.623V92.7171H225.31V82.2127Z" fill="white"/>
<path d="M241.568 90.9875H237.878L237.359 92.7171H234.062L238.005 82.2127H241.556L245.499 92.7171H242.133L241.568 90.9875ZM240.887 88.6814L239.734 84.8994L238.581 88.6814H240.887Z" fill="white"/>
<path d="M246.549 82.2127H249.581L253.536 87.978V82.2127H256.592V92.7171H253.536L249.593 86.9518V92.7171H246.549V82.2127Z" fill="white"/>
<path d="M258.747 82.2127H267.498V84.4497H262.045V86.1216H267.095V88.2663H262.045V90.3418H267.648V92.7171H258.793L258.747 82.2127Z" fill="white"/>
<path d="M486.963 351.681V345.605C486.909 344.769 487.177 343.943 487.712 343.299C487.946 343.036 488.235 342.827 488.557 342.685C488.879 342.544 489.228 342.474 489.58 342.48C490.165 342.464 490.733 342.67 491.171 343.057C491.508 343.368 491.752 343.768 491.875 344.21C491.993 343.565 492.322 342.977 492.809 342.538C493.288 342.172 493.879 341.985 494.481 342.007C494.994 341.999 495.501 342.13 495.945 342.388C496.377 342.635 496.735 342.994 496.983 343.426C497.179 343.81 497.297 344.229 497.329 344.659C497.399 345.141 497.445 345.626 497.467 346.112V351.681H486.963ZM491.079 348.407V347C491.118 346.628 491.029 346.253 490.826 345.939C490.728 345.837 490.61 345.757 490.478 345.705C490.347 345.653 490.206 345.631 490.065 345.639C489.931 345.634 489.797 345.658 489.674 345.709C489.55 345.761 489.439 345.84 489.35 345.939C489.148 346.246 489.059 346.612 489.096 346.977V348.407H491.079ZM495.207 348.407V346.746C495.242 346.341 495.14 345.935 494.919 345.593C494.818 345.48 494.694 345.389 494.554 345.33C494.414 345.27 494.263 345.242 494.112 345.247C493.97 345.244 493.829 345.272 493.699 345.33C493.57 345.388 493.455 345.474 493.362 345.582C493.154 345.929 493.057 346.331 493.085 346.735V348.384L495.207 348.407Z" fill="white"/>
<path d="M495.795 334.005V337.683L497.524 338.202V341.523L487.021 337.568V334.028L497.524 330.073V333.475L495.795 334.005ZM493.489 334.674L489.707 335.827L493.489 336.98V334.674Z" fill="white"/>
<path d="M486.963 329.047V325.795H494.884V320.722H497.467V329.047H486.963Z" fill="white"/>
<path d="M493.167 312.478L494.031 309.63C494.753 309.789 495.433 310.099 496.026 310.54C496.558 310.931 496.976 311.457 497.237 312.063C497.535 312.794 497.676 313.579 497.652 314.369C497.682 315.327 497.514 316.281 497.156 317.171C496.769 317.952 496.159 318.602 495.403 319.038C494.433 319.604 493.321 319.88 492.198 319.834C491.471 319.883 490.741 319.785 490.052 319.548C489.363 319.31 488.728 318.937 488.186 318.45C487.391 317.469 486.909 316.272 486.802 315.014C486.695 313.756 486.968 312.495 487.586 311.394C488.206 310.582 489.071 309.992 490.053 309.71L490.688 312.581C490.436 312.642 490.198 312.747 489.984 312.893C489.738 313.067 489.539 313.299 489.405 313.569C489.27 313.838 489.204 314.137 489.212 314.438C489.198 314.773 489.273 315.107 489.429 315.404C489.585 315.702 489.816 315.953 490.1 316.133C490.734 316.48 491.454 316.636 492.175 316.582C493.007 316.663 493.842 316.477 494.562 316.052C494.952 315.676 495.182 315.165 495.206 314.625C495.229 314.084 495.044 313.554 494.689 313.146C494.248 312.794 493.724 312.564 493.167 312.478V312.478Z" fill="white"/>
<path d="M492.22 308.488C491.489 308.557 490.752 308.464 490.061 308.216C489.37 307.968 488.743 307.57 488.223 307.052C487.703 306.533 487.304 305.906 487.055 305.216C486.805 304.525 486.71 303.788 486.778 303.057C486.731 302.323 486.831 301.587 487.073 300.892C487.315 300.197 487.693 299.557 488.185 299.01C488.714 298.518 489.337 298.139 490.017 297.895C490.697 297.652 491.419 297.548 492.14 297.592C493.182 297.552 494.219 297.766 495.161 298.214C495.936 298.62 496.573 299.246 496.994 300.013C497.461 300.912 497.688 301.917 497.651 302.93C497.689 303.941 497.495 304.946 497.086 305.871C496.69 306.667 496.063 307.326 495.287 307.762C494.35 308.277 493.29 308.528 492.22 308.488V308.488ZM492.22 305.236C493.034 305.311 493.848 305.103 494.526 304.648C494.744 304.44 494.917 304.189 495.035 303.912C495.154 303.634 495.215 303.336 495.215 303.034C495.215 302.733 495.154 302.434 495.035 302.157C494.917 301.879 494.744 301.629 494.526 301.42C493.798 300.962 492.938 300.76 492.082 300.843C491.311 300.775 490.541 300.988 489.914 301.443C489.683 301.644 489.501 301.894 489.381 302.176C489.261 302.458 489.207 302.763 489.222 303.069C489.214 303.368 489.272 303.665 489.394 303.939C489.516 304.212 489.698 304.455 489.926 304.648C490.604 305.103 491.419 305.311 492.232 305.236H492.22Z" fill="white"/>
<path d="M486.963 295.828V292.795L492.728 288.828H486.963V285.773H497.467V288.828L491.702 292.772H497.467V295.828H486.963Z" fill="white"/>
<path d="M486.963 284.677V281.068L490.503 278.947L486.963 276.825V273.274L493.074 277.367H497.467V280.619H493.074L486.963 284.677Z" fill="white"/>
<path d="M436.634 387.691H365.551V388.844H436.634V387.691Z" fill="#E5E4E4"/>
</g>
<defs>
<clipPath id="clip0">
<rect width="558" height="778" fill="white"/>
</clipPath>
</defs>
</svg>
